<svg width="232" height="204" viewBox="0 0 232 204" fill="none" xmlns="http://www.w3.org/2000/svg">
<path d="M94.6768 152.997C87.8368 148.883 85.7313 136.869 86.682 128.622C87.7913 118.992 92.6221 118.362 92.908 110.804C93.441 96.7328 76.9144 93.1482 76.3369 78.9135C75.8652 67.276 86.7308 65.2558 85.6275 52.3917C84.8315 43.1085 78.7912 39.6989 80.7368 31.3907C80.903 30.6804 82.8036 23.0489 88.9563 20.8187C95.166 18.5677 102.076 23.1354 105.617 26.973C112.162 34.0673 108.171 39.7256 112.878 51.0062C119.286 66.3642 130.478 64.9669 132.884 77.2565C134.871 87.4048 127.698 90.6986 130.122 101.907C132.373 112.316 139.376 113.258 140.226 120.405C142.179 136.851 108.629 161.388 94.6768 152.997Z" fill="#9BC8E7"/>
<g style="mix-blend-mode:soft-light" opacity="0.7">
<path d="M104.618 159.916C104.592 159.916 104.566 159.908 104.544 159.892C104.522 159.877 104.506 159.855 104.497 159.83C104.488 159.805 104.487 159.778 104.494 159.752C104.501 159.726 104.515 159.703 104.536 159.686C110.293 155.632 114.955 150.537 118.394 144.547C121.651 138.871 125.018 133.003 124.171 126.116C123.532 120.909 120.883 118.283 117.53 114.958C114.264 111.719 110.2 107.69 106.961 99.8783C105.112 95.4166 102.811 89.8653 103.712 82.9013C104.237 78.8431 105.602 76.4719 106.806 74.3795C108.067 72.189 109.062 70.4593 108.612 67.5615C107.877 62.8323 105.095 59.9587 101.875 56.6377C99.8845 54.5843 97.8272 52.462 95.9406 49.6296C90.6304 41.662 89.6232 30.4792 92.9461 16.3937C92.9539 16.3612 92.9741 16.3331 93.0023 16.3156C93.0306 16.2982 93.0645 16.2927 93.0968 16.3006C93.129 16.3084 93.1569 16.3289 93.1742 16.3574C93.1916 16.386 93.197 16.4203 93.1893 16.4529C89.8833 30.4667 90.8788 41.582 96.1483 49.491C98.0223 52.3028 100.071 54.418 102.053 56.4629C105.304 59.818 108.111 62.7157 108.859 67.5246C109.323 70.5105 108.257 72.3635 107.021 74.5086C105.829 76.5804 104.477 78.9285 103.958 82.9361C103.066 89.8337 105.352 95.3497 107.189 99.7823C110.409 107.548 114.454 111.558 117.703 114.781C121.091 118.139 123.768 120.793 124.417 126.088C125.273 133.059 121.884 138.964 118.607 144.675C115.147 150.7 110.462 155.82 104.675 159.893C104.658 159.905 104.639 159.913 104.618 159.916Z" fill="white"/>
</g>
<g style="mix-blend-mode:soft-light" opacity="0.7">
<path d="M103.649 86.3394C103.619 86.3416 103.588 86.3327 103.564 86.3142C92.4642 77.7682 86.9147 69.4599 84.2142 63.9945C81.2833 58.0634 80.9787 54.0968 80.9756 54.0574C80.9736 54.0404 80.9751 54.0233 80.9802 54.007C80.9852 53.9908 80.9936 53.9758 81.0048 53.963C81.0159 53.9503 81.0297 53.9401 81.045 53.9331C81.0604 53.9261 81.0771 53.9225 81.094 53.9224C81.1105 53.9213 81.1271 53.9235 81.1428 53.929C81.1585 53.9344 81.173 53.943 81.1854 53.9541C81.1978 53.9653 81.2079 53.9788 81.215 53.9939C81.2222 54.0091 81.2263 54.0255 81.2271 54.0422C81.2301 54.0811 81.5375 58.009 84.4478 63.8994C87.1371 69.337 92.6635 77.6048 103.719 86.1152C103.745 86.1361 103.761 86.1661 103.766 86.1991C103.77 86.2321 103.762 86.2655 103.742 86.2924C103.731 86.3063 103.717 86.3177 103.701 86.3258C103.685 86.3339 103.667 86.3385 103.649 86.3394Z" fill="white"/>
</g>
<g style="mix-blend-mode:soft-light" opacity="0.7">
<path d="M110.18 106.06C110.155 106.063 110.129 106.057 110.107 106.043C110.084 106.03 110.067 106.01 110.056 105.986C110.045 105.962 110.042 105.936 110.048 105.91C110.053 105.885 110.065 105.861 110.084 105.843C115.426 100.683 119.35 95.0006 121.746 88.9528C123.654 84.1553 124.613 79.0249 124.566 73.8519C124.49 65.0222 121.514 58.8759 121.484 58.8145C121.469 58.7845 121.466 58.7499 121.477 58.7183C121.488 58.6866 121.51 58.6605 121.54 58.6457C121.569 58.6308 121.604 58.6285 121.635 58.6392C121.666 58.6499 121.692 58.6727 121.707 58.7026C121.738 58.7653 124.737 64.9534 124.816 73.8382C124.864 79.0449 123.901 84.2089 121.981 89.038C119.572 95.1219 115.627 100.837 110.257 106.024C110.236 106.045 110.209 106.057 110.18 106.06Z" fill="white"/>
</g>
<g style="mix-blend-mode:soft-light" opacity="0.7">
<path d="M122.194 138.548C122.182 138.549 122.17 138.548 122.159 138.546C106.509 135.213 97.8807 127.589 93.3985 121.785C88.5382 115.489 87.3663 109.903 87.3555 109.847C87.3522 109.831 87.3521 109.814 87.3553 109.798C87.3584 109.782 87.3647 109.766 87.3738 109.752C87.3828 109.738 87.3945 109.727 87.4081 109.717C87.4217 109.708 87.437 109.702 87.4531 109.698C87.4692 109.695 87.4857 109.695 87.5018 109.698C87.5179 109.702 87.5333 109.708 87.547 109.717C87.5606 109.726 87.5724 109.738 87.5815 109.752C87.5907 109.766 87.5971 109.781 87.6004 109.797C87.6111 109.852 88.7748 115.39 93.6039 121.641C98.0609 127.412 106.642 134.983 122.21 138.301C122.24 138.307 122.267 138.324 122.285 138.348C122.304 138.372 122.313 138.403 122.311 138.433C122.309 138.464 122.296 138.493 122.275 138.514C122.253 138.536 122.225 138.549 122.194 138.551L122.194 138.548Z" fill="white"/>
</g>
<g style="mix-blend-mode:soft-light" opacity="0.7">
<path d="M95.4262 48.1626C95.4019 48.1646 95.3776 48.1594 95.3563 48.1476C95.3349 48.1359 95.3174 48.1181 95.3059 48.0964C95.2944 48.0748 95.2895 48.0502 95.2916 48.0258C95.2938 48.0013 95.303 47.978 95.318 47.9588C103.184 37.8624 103.463 27.9534 102.313 21.4188C101.066 14.337 97.9209 9.58743 97.8894 9.53911C97.8802 9.52538 97.8737 9.50996 97.8704 9.49373C97.8671 9.4775 97.867 9.46077 97.8701 9.44451C97.8732 9.42825 97.8794 9.41276 97.8885 9.39894C97.8975 9.38512 97.9091 9.37324 97.9227 9.36397C97.9363 9.3547 97.9515 9.34822 97.9676 9.34491C97.9837 9.3416 98.0002 9.34152 98.0163 9.34467C98.0325 9.34783 98.0478 9.35415 98.0615 9.36329C98.0752 9.37242 98.087 9.38419 98.0962 9.39792C98.1283 9.44555 101.302 14.241 102.559 21.3748C103.718 27.9601 103.438 37.9454 95.5146 48.1153C95.5038 48.1288 95.4904 48.1399 95.4752 48.148C95.46 48.1561 95.4433 48.1611 95.4262 48.1626Z" fill="white"/>
</g>
<path d="M119.519 161.219C118.474 162.53 115.057 164.448 113.961 164.577C106.669 165.434 93.1209 167.934 86.7484 163.451C85.6571 162.685 87.6974 156.945 87.0937 155.59C87.512 151.611 87.9012 150.257 86.4595 146.274C82.2016 134.513 57.4867 140.021 62.6917 119.031C66.5035 103.657 77.5077 95.4913 56.8256 84.5922C36.1434 73.693 9.60925 35.4394 36.2596 22.8692C51.5519 15.6554 60.9641 38.4161 77.1919 39.8788C92.6127 41.2686 99.2834 52.3546 98.6989 69.4251C98.1144 86.4957 107.674 83.1011 121.145 86.3753C137.327 90.3079 127.021 112.74 121.387 122.686C116.851 130.698 110.655 154.191 119.519 161.219Z" fill="#6165D7"/>
<g style="mix-blend-mode:soft-light" opacity="0.7">
<g style="mix-blend-mode:soft-light" opacity="0.7">
<g style="mix-blend-mode:soft-light" opacity="0.7">
<path d="M101.032 164.187L100.679 164.152C105.877 109.268 78.2636 57.1665 26.8152 24.7805L27.0022 24.4768C51.3848 39.8222 71.1448 60.4124 84.1442 84.0057C97.8108 108.81 103.651 136.536 101.032 164.187Z" fill="#FCFDFE"/>
</g>
<g style="mix-blend-mode:soft-light" opacity="0.7">
<path d="M128.055 87.2297C116.681 96.9854 104.192 117.349 100.216 132.623L99.8731 132.531C103.866 117.197 116.406 96.7523 127.827 86.9566L128.055 87.2297Z" fill="#FCFDFE"/>
</g>
<g style="mix-blend-mode:soft-light" opacity="0.7">
<path d="M101.93 153.401L101.582 153.466C100.082 145.392 94.6003 138.387 85.2863 132.647C78.4575 128.438 69.7666 124.994 59.4548 122.411L59.5398 122.063C69.8864 124.655 78.6113 128.113 85.4704 132.339C94.8735 138.138 100.408 145.22 101.93 153.401Z" fill="#FCFDFE"/>
</g>
<g style="mix-blend-mode:soft-light" opacity="0.7">
<path d="M82.1705 80.7279L81.8258 80.8115C78.2239 65.7379 84.0289 50.5375 89.5325 40.4405L89.8431 40.6115C84.3714 50.6553 78.5955 65.7661 82.1705 80.7279Z" fill="#FCFDFE"/>
</g>
<g style="mix-blend-mode:soft-light" opacity="0.7">
<path d="M61.0529 52.3361L60.8469 52.627C46.7866 42.4455 28.6448 42.9568 19.0833 44.1698L19.0381 43.8146C28.6513 42.5949 46.8946 42.0796 61.0529 52.3361Z" fill="#FCFDFE"/>
</g>
</g>
</g>
<path d="M196.109 119.853L43.6319 127.613C35.751 128.014 29.7784 134.927 30.4142 143.052L32.8233 173.839C33.4588 181.962 40.4292 187.801 48.2707 186.895L199.984 169.376C205.372 168.754 209.266 162.907 208.749 156.31L206.793 131.303C206.276 124.706 201.524 119.578 196.109 119.853Z" fill="#97A6B7"/>
<path d="M48.1196 184.964C41.3413 185.732 35.3068 180.66 34.758 173.646L32.3539 142.922C31.8051 135.908 36.9735 129.905 43.7837 129.545L196.236 121.466C200.925 121.218 205.062 125.671 205.51 131.388L207.47 156.44C207.917 162.159 204.526 167.236 199.859 167.766L48.1196 184.964Z" fill="url(#paint0_linear_2615_336)"/>
<path d="M63.8418 140.204L68.6665 148.706C68.7512 148.858 68.8717 148.987 69.0173 149.082C69.163 149.176 69.3294 149.233 69.5018 149.248L78.7049 149.945C79.5543 150.009 79.9746 151.079 79.4172 151.757L73.3975 159.082C73.2866 159.219 73.2087 159.38 73.17 159.552C73.1314 159.725 73.1331 159.904 73.175 160.076L75.4808 169.526C75.6953 170.407 74.8623 171.178 74.0695 170.832L65.4869 167.085C65.3281 167.016 65.1547 166.989 64.9828 167.005C64.8108 167.022 64.6458 167.082 64.503 167.18L56.4638 172.61C55.7059 173.122 54.7253 172.518 54.8052 171.587L55.6597 161.633C55.6764 161.453 55.6498 161.271 55.5823 161.103C55.5147 160.935 55.4081 160.785 55.2715 160.668L47.8106 154.285C47.1081 153.684 47.3785 152.519 48.2675 152.315L57.6834 150.146C57.8548 150.106 58.0137 150.023 58.1461 149.906C58.2785 149.789 58.3803 149.641 58.4424 149.475L61.942 140.325C62.2666 139.481 63.3894 139.407 63.8418 140.204Z" fill="#D8DEE8"/>
<path d="M97.3747 137.993L101.874 146.19C101.95 146.336 102.061 146.46 102.197 146.552C102.332 146.643 102.488 146.7 102.651 146.716L111.196 147.414C111.985 147.479 112.377 148.511 111.862 149.162L106.295 156.196C106.191 156.33 106.119 156.486 106.084 156.652C106.049 156.819 106.051 156.991 106.091 157.156L108.257 166.265C108.459 167.113 107.688 167.854 106.951 167.517L98.9769 163.88C98.8303 163.813 98.669 163.786 98.509 163.802C98.349 163.817 98.1958 163.874 98.0646 163.968L90.626 169.165C89.9256 169.654 89.0148 169.069 89.0859 168.174L89.8526 158.598C89.8676 158.425 89.8426 158.252 89.7798 158.091C89.717 157.93 89.618 157.786 89.4906 157.67L82.556 151.506C81.9041 150.926 82.151 149.806 82.9737 149.612L91.693 147.553C91.8535 147.513 92.0015 147.434 92.1241 147.322C92.2466 147.21 92.3397 147.069 92.3951 146.912L95.6125 138.109C95.9115 137.293 96.9529 137.223 97.3747 137.993Z" fill="url(#paint1_linear_2615_336)"/>
<path d="M128.492 135.658L132.702 143.572C132.771 143.711 132.874 143.83 133 143.919C133.126 144.008 133.272 144.063 133.425 144.08L141.381 144.774C142.115 144.838 142.484 145.835 142.006 146.462L136.84 153.233C136.744 153.364 136.677 153.515 136.645 153.675C136.613 153.835 136.616 154.001 136.655 154.159L138.696 162.951C138.886 163.769 138.171 164.481 137.484 164.152L130.052 160.619C129.917 160.554 129.766 160.528 129.617 160.542C129.468 160.556 129.325 160.611 129.204 160.7L122.304 165.683C121.654 166.153 120.805 165.586 120.869 164.724L121.554 155.498C121.567 155.333 121.544 155.167 121.485 155.012C121.427 154.857 121.334 154.717 121.215 154.603L114.754 148.643C114.147 148.082 114.373 147.004 115.137 146.819L123.234 144.858C123.385 144.818 123.524 144.741 123.637 144.633C123.751 144.524 123.836 144.389 123.885 144.239L126.854 135.765C127.131 134.979 128.097 134.916 128.492 135.658Z" fill="url(#paint2_linear_2615_336)"/>
<path d="M157.484 133.747L161.429 141.397C161.492 141.53 161.587 141.645 161.705 141.731C161.823 141.817 161.961 141.871 162.105 141.889L169.53 142.579C170.216 142.643 170.562 143.605 170.118 144.212L165.315 150.737C165.225 150.865 165.163 151.01 165.133 151.164C165.103 151.318 165.106 151.477 165.142 151.629L167.068 160.123C167.248 160.914 166.581 161.599 165.94 161.281L159.001 157.846C158.876 157.783 158.735 157.756 158.595 157.769C158.455 157.783 158.322 157.835 158.211 157.921L151.792 162.708C151.187 163.159 150.396 162.609 150.453 161.777L151.066 152.875C151.079 152.716 151.057 152.556 151.002 152.407C150.947 152.258 150.861 152.122 150.749 152.01L144.715 146.246C144.148 145.705 144.356 144.664 145.067 144.488L152.609 142.615C152.751 142.575 152.882 142.499 152.987 142.395C153.093 142.291 153.171 142.162 153.214 142.019L155.961 133.847C156.212 133.088 157.115 133.029 157.484 133.747Z" fill="url(#paint3_linear_2615_336)"/>
<path d="M184.546 131.963L188.252 139.367C188.389 139.64 188.626 139.818 188.886 139.844L195.831 140.529C196.473 140.593 196.8 141.526 196.385 142.109L191.908 148.405C191.824 148.529 191.766 148.67 191.739 148.819C191.712 148.967 191.715 149.12 191.749 149.267L193.572 157.485C193.742 158.253 193.121 158.91 192.52 158.601L186.024 155.259C185.907 155.197 185.775 155.172 185.644 155.184C185.513 155.197 185.389 155.247 185.285 155.33L179.297 159.935C178.734 160.37 177.993 159.835 178.044 159.031L178.596 150.435C178.608 150.282 178.587 150.128 178.535 149.984C178.484 149.84 178.402 149.708 178.296 149.598L172.648 144.009C172.117 143.484 172.308 142.48 172.971 142.311L180.008 140.524C180.267 140.458 180.477 140.243 180.572 139.95L183.118 132.058C183.355 131.324 184.199 131.269 184.546 131.963Z" fill="#D8DEE8"/>
<g style="mix-blend-mode:multiply" opacity="0.1">
<g style="mix-blend-mode:multiply" opacity="0.1">
<path d="M175.829 148.798C155.767 144.934 144.687 173.014 121.385 168.861C101.181 165.259 98.8829 142.999 74.1093 128.966C72.411 128.005 70.6905 127.124 68.9477 126.325L43.6338 127.613C35.751 128.014 29.7784 134.927 30.4142 143.052L32.8233 173.839C33.4588 181.962 40.4292 187.801 48.2707 186.895L198.953 169.495C190.503 154.878 182.391 150.061 175.829 148.798Z" fill="#97A6B7"/>
</g>
</g>
<path d="M63.8418 140.204L68.6665 148.705C68.7512 148.858 68.8717 148.987 69.0173 149.082C69.163 149.176 69.3294 149.233 69.5018 149.247L78.7049 149.945C79.5543 150.008 79.9746 151.079 79.4172 151.757L73.3975 159.082C73.2866 159.218 73.2087 159.379 73.17 159.552C73.1314 159.725 73.1331 159.904 73.175 160.076L75.4808 169.526C75.6953 170.406 74.8623 171.178 74.0695 170.832L65.4869 167.085C65.3281 167.016 65.1547 166.989 64.9828 167.005C64.8108 167.022 64.6458 167.082 64.503 167.18L56.4638 172.61C55.7059 173.122 54.7253 172.517 54.8052 171.586L55.6597 161.633C55.6764 161.453 55.6498 161.271 55.5823 161.103C55.5147 160.935 55.4081 160.785 55.2715 160.667L47.8106 154.285C47.1081 153.684 47.3785 152.519 48.2675 152.315L57.6834 150.146C57.8548 150.105 58.0137 150.023 58.1461 149.906C58.2785 149.789 58.3803 149.641 58.4424 149.475L61.942 140.325C62.2666 139.481 63.3894 139.406 63.8418 140.204Z" fill="url(#paint4_linear_2615_336)"/>
<path d="M143.75 139.785C140.59 140.663 136.992 139.702 134.69 137.092L102.231 100.291C99.276 96.9415 99.5746 91.8769 102.911 88.9549C106.271 86.0122 112.995 85.753 116.01 89.1305L149.087 126.238C152.205 129.737 151.812 134.889 148.223 137.719C147.334 138.416 144.792 139.493 143.75 139.785Z" fill="#2213AC"/>
<path d="M192.864 64.821C196.494 75.3955 192.447 86.2088 183.946 88.9326C175.578 91.6156 166.027 85.4264 162.499 75.146C158.971 64.8656 162.719 54.1546 170.988 51.18C179.386 48.1588 189.235 54.2465 192.864 64.821Z" fill="url(#paint5_linear_2615_336)"/>
<g style="mix-blend-mode:multiply" opacity="0.3">
<path d="M191.474 65.113C194.169 72.9649 192.934 80.3771 188.772 81.65C184.676 82.9035 179.277 77.717 176.656 70.0832C174.035 62.4494 175.126 55.0863 179.148 53.616C183.235 52.123 188.778 57.2604 191.474 65.113Z" fill="#97A6B7"/>
</g>
<path d="M89.3239 84.1439C89.4754 84.0911 89.6305 84.0492 89.7879 84.0184L100.692 80.0798L110.563 108.837L99.9468 112.376C99.6998 112.541 99.4335 112.674 99.154 112.772C95.4024 114.08 90.1618 108.732 87.4476 100.826C84.7334 92.9202 85.5729 85.4518 89.3239 84.1439Z" fill="#2213AC"/>
<path d="M100.692 80.0799C99.833 91.1013 103.108 100.643 110.563 108.837L201.062 106.895L174.196 25.8874L100.692 80.0799Z" fill="url(#paint6_linear_2615_336)"/>
<path d="M205.373 106.582C216.311 102.768 218.764 80.9888 210.852 57.9376C202.939 34.8864 187.658 19.2919 176.72 23.1063C165.781 26.9208 163.329 48.6996 171.241 71.7508C179.153 94.802 194.434 110.396 205.373 106.582Z" fill="url(#paint7_linear_2615_336)"/>
<path d="M204.888 105.167C207.21 104.357 209.154 102.577 210.666 99.8762C212.204 97.1275 213.228 93.57 213.706 89.3032C214.716 80.3338 213.204 69.3684 209.449 58.4273C205.693 47.4863 200.158 37.9242 193.865 31.5016C190.876 28.4431 187.887 26.2856 184.992 25.0798C182.147 23.898 179.527 23.7091 177.205 24.5171C174.883 25.3252 172.939 27.1069 171.431 29.8077C169.892 32.5565 168.868 36.1139 168.391 40.3807C167.969 44.1307 167.987 48.2303 168.426 52.5308C169.038 58.5158 174.746 62.9944 176.931 69.3608C179.256 76.1304 177.977 84.2673 181.421 89.5644C183.546 92.828 185.836 95.7297 188.232 98.1823C191.226 101.237 194.212 103.396 197.107 104.599C199.946 105.785 202.566 105.974 204.888 105.167Z" fill="url(#paint8_linear_2615_336)"/>
<path d="M52.2349 77.6908C52.2197 77.7041 52.2072 77.7203 52.1983 77.7384L52.0284 77.7586C52.0119 77.7853 51.8311 77.8442 51.8351 77.8948L52.002 77.9367C52.0063 77.9919 52.0887 78.055 52.0785 78.133L52.1189 78.163C52.0159 79.3021 51.22 82.4599 50.3966 86.5316C50.3876 86.5655 50.3935 86.6013 50.3853 86.6352C48.5366 95.7702 45.9158 109.507 45.2926 115.822C45.2926 115.822 43.4074 116.943 40.3939 117.66L40.3862 117.66C36.0524 118.962 29.4676 120.363 23.1507 119.227C23.1507 119.227 17.7205 92.456 19.9284 68.7193C19.9284 68.7193 30.2989 65.2719 41.6575 63.6676C41.7161 63.6631 41.7903 63.8588 41.8485 63.8504C42.7651 63.7274 43.7031 63.8296 44.6275 63.7577L45.6837 63.6755C46.1571 63.6387 47.0242 63.7379 48.0545 64.0801C48.0847 64.0885 48.1352 63.9804 48.1365 63.9965C48.1361 63.9672 48.1377 63.9379 48.1413 63.9089C48.1413 63.9089 48.3192 63.9722 48.3988 63.9992C48.5166 64.0379 48.6375 64.0764 48.7631 64.1253C48.789 64.1374 48.8157 64.1477 48.8431 64.1561C48.8552 64.1629 48.87 64.1633 48.8814 64.1701C48.9616 64.204 49.0416 64.2349 49.1328 64.271C49.1497 64.2758 49.1662 64.2818 49.1823 64.2888C49.2808 64.329 49.3803 64.3722 49.4838 64.4158C49.499 64.4216 49.4225 64.4353 49.438 64.4449C49.5558 64.4944 49.7079 64.5451 49.83 64.5981C49.952 64.6512 50.0253 64.6964 50.0379 64.758L50.0451 64.6617C50.1021 64.6866 50.1633 64.715 50.2214 64.7437C50.2266 64.7451 50.2317 64.747 50.2365 64.7495C50.8969 65.0634 51.5283 65.4346 52.1232 65.8587C52.1232 65.8587 52.1237 65.8664 52.1317 65.8697C52.1398 65.8729 52.1522 65.8935 52.16 65.9037C55.0504 69.9351 56.7759 76.7684 52.2349 77.6908Z" fill="url(#paint9_linear_2615_336)"/>
<path d="M79.4915 82.6193C67.8927 82.3029 61.8062 73.9012 57.0938 68.6243C50.8724 61.6576 44.7394 63.4218 44.7394 63.4218L49.8262 79.4703C59.4144 92.3437 71.6736 92.0366 79.7603 89.8509C80.2844 87.4559 80.1919 84.9683 79.4915 82.6193V82.6193Z" fill="#7D97F4"/>
<path d="M96.5724 78.7269L92.4666 80.0686C87.4848 81.9949 83.21 82.719 79.4918 82.6224C80.1917 84.9707 80.2841 87.4574 79.7604 89.8517C84.9079 88.4606 88.3658 86.3077 88.3658 86.3077C97.756 82.7722 96.5724 78.7269 96.5724 78.7269Z" fill="#7D97F4"/>
<path d="M106.663 85.9391C106.615 85.5229 106.473 85.1229 106.248 84.7688C106.023 84.4146 105.721 84.1153 105.365 83.8931L98.3096 79.5011C98.3096 79.5011 98.369 78.5098 100.208 78.1559C102.048 77.802 101.991 75.8115 101.991 75.8115C101.991 75.8115 99.4475 76.4618 95.7009 77.5447C93.5586 78.1638 92.1435 79.6744 91.3299 80.8611L92.826 83.7702C97.2596 86.0031 101.952 87.1117 106.838 87.404L106.663 85.9391Z" fill="url(#paint10_linear_2615_336)"/>
<path d="M45.7656 63.2528C45.7253 63.256 45.688 63.2589 45.6515 63.2617C45.6407 63.2626 45.6329 63.2632 45.6214 63.2563L45.7656 63.2528Z" fill="url(#paint11_linear_2615_336)"/>
<path d="M48.069 62.95L48.0537 62.9588L48.0525 62.9429C48.0546 62.9452 48.0571 62.947 48.06 62.9482C48.0628 62.9495 48.0659 62.9501 48.069 62.95V62.95Z" fill="url(#paint12_linear_2615_336)"/>
<path d="M51.2429 190.947C51.2429 190.947 50.9072 194.359 50.8735 197.713C50.8714 198.024 50.9325 198.332 51.0532 198.619C51.174 198.905 51.3518 199.165 51.576 199.381C51.8002 199.597 52.0661 199.766 52.3577 199.878C52.6494 199.989 52.9606 200.04 53.2728 200.028C57.7442 199.866 67.3052 199.483 70.7142 199.065C70.8332 199.05 70.9469 199.007 71.0458 198.939C71.1447 198.872 71.2259 198.782 71.2827 198.677C71.3395 198.571 71.3702 198.454 71.3723 198.335C71.3744 198.216 71.3477 198.098 71.2946 197.991V197.991C71.1039 197.604 70.7714 197.306 70.3657 197.157L54.0579 191.179L51.2429 190.947Z" fill="url(#paint13_linear_2615_336)"/>
<path d="M50.5993 189.007L51.3928 192.994C51.3928 192.994 54.2501 194.058 56.0223 192.472L54.5307 188.075L50.5993 189.007Z" fill="url(#paint14_linear_2615_336)"/>
<path d="M45.0715 113.309C44.9459 114.375 48.0409 165.848 55.3537 188.454C55.4128 188.632 55.4058 188.825 55.3339 188.999C55.262 189.172 55.13 189.314 54.9619 189.399C54.1406 189.81 52.5211 190.438 50.5371 190.658C50.2382 190.691 49.9368 190.625 49.6802 190.469C49.4237 190.313 49.2265 190.076 49.1196 189.796C47.1263 184.574 37.4815 158.385 34.5041 132.883C31.178 104.386 34.4283 131.91 34.4283 131.91L33.7002 114.191L45.0715 113.309Z" fill="url(#paint15_linear_2615_336)"/>
<path d="M33.2654 194.113C33.2654 194.113 32.447 195.886 31.878 200.474C31.853 200.67 31.8694 200.868 31.9264 201.056C31.9833 201.245 32.0794 201.419 32.2085 201.568C32.3376 201.717 32.4967 201.838 32.6755 201.922C32.8544 202.005 33.049 202.051 33.2467 202.055C34.7289 202.085 37.0092 202.093 38.8224 201.94C39.0197 201.924 39.2114 201.866 39.385 201.771C39.5585 201.677 39.7101 201.546 39.8296 201.389C39.9492 201.232 40.0341 201.051 40.0788 200.859C40.1235 200.667 40.1269 200.468 40.0889 200.275C39.7595 198.643 38.9231 195.988 36.8239 194.031L33.2654 194.113Z" fill="url(#paint16_linear_2615_336)"/>
<path d="M32.0276 189.001L33.6223 195.001C33.6223 195.001 34.7948 195.735 36.9411 194.97L35.8964 188.462L32.0276 189.001Z" fill="url(#paint17_linear_2615_336)"/>
<path d="M23.3447 116.586C20.9411 144.058 29.5409 183.54 32.0014 191.207C32.0743 191.437 32.2138 191.64 32.4025 191.791C32.5912 191.942 32.8206 192.034 33.0618 192.055C33.8997 192.127 35.2699 192.133 36.582 191.64C36.8027 191.557 36.9916 191.407 37.122 191.211C37.2524 191.015 37.3176 190.784 37.3084 190.549C37.066 184.215 33.6011 145.48 36.6167 129.831C36.7696 129.039 37.1933 128.324 37.8159 127.808L45.5309 121.395L45.4302 112.007L23.3447 116.586Z" fill="url(#paint18_linear_2615_336)"/>
<path d="M26.135 81.3461L19.9309 68.7105C19.9309 68.7105 7.95809 78.2404 6.72281 89.2384C9.12652 89.2281 13.5183 89.5079 17.9374 91.3149C18.4735 86.1237 26.135 81.3461 26.135 81.3461Z" fill="#91B3FA"/>
<path d="M33.559 53.0932L30.2198 65.8199C30.1925 65.9217 30.2022 66.0299 30.2472 66.1253C30.2922 66.2206 30.3697 66.2971 30.4659 66.3411C31.6895 66.8952 36.0628 68.4332 40.908 64.8213C41.1581 64.6369 41.3644 64.4 41.5122 64.1274C41.66 63.8548 41.7458 63.5531 41.7633 63.2439L42.3226 52.4104L33.559 53.0932Z" fill="url(#paint19_linear_2615_336)"/>
<path d="M26.4057 66.8034L31.2047 62.0609L40.3431 80.1373L40.5136 154.78L23.0568 156.663C22.9956 156.67 22.9338 156.664 22.875 156.646C22.8162 156.628 22.7617 156.598 22.715 156.558C22.6683 156.518 22.6303 156.469 22.6033 156.414C22.5764 156.359 22.5611 156.299 22.5584 156.238L19.4476 84.6585C19.4476 84.6585 18.3144 69.2288 19.9309 68.7123C21.5475 68.1959 26.4057 66.8034 26.4057 66.8034Z" fill="#91B3FA"/>
<path d="M51.8596 77.7716L51.8374 77.8946L52.0043 77.9364L52.0808 78.1327L51.7249 78.1936L51.079 93.067L51.0795 93.0739L50.149 154.994C50.144 155.12 50.3065 155.214 50.2169 155.298C50.1272 155.382 50.1118 155.412 49.9924 155.404L40.4662 154.779L40.37 117.661L40.3819 117.605L40.1935 79.172L41.5171 63.6283L41.5166 63.6214L41.7954 61.2233L44.5529 63.2477L44.6107 63.2432L45.3524 63.2256L45.6619 63.2162C46.1411 63.304 48.1261 63.8737 48.1261 63.8737C48.1261 63.8737 48.8232 64.1205 49.1574 64.2489C49.171 64.2542 49.1842 64.2604 49.1969 64.2674C49.2962 64.3076 49.3912 64.3519 49.4938 64.3949C49.509 64.4014 49.424 64.415 49.4395 64.4254C49.6462 64.5189 49.8376 64.626 49.8475 64.7534L49.848 64.7603L51.8246 77.7002L51.828 77.7447L51.8596 77.7716Z" fill="#7D97F4"/>
<path d="M43.2518 79.7585L43.3932 81.5749L50.1093 80.6462L49.9523 78.6279L43.2518 79.7585Z" fill="url(#paint20_linear_2615_336)"/>
<path d="M40.2627 84.4669C40.2326 84.4691 40.2024 84.4641 40.1747 84.4521L34.0249 81.7553C33.9986 81.7439 33.9753 81.7265 33.957 81.7044C33.9387 81.6824 33.9259 81.6563 33.9196 81.6284L32.6883 76.2713L30.5051 76.0552C30.4714 76.052 30.4393 76.0396 30.4122 76.0194C30.3852 75.9992 30.3643 75.9718 30.3519 75.9405L27.5004 68.7508C27.4825 68.7057 27.4833 68.6552 27.5028 68.6106C27.5222 68.5661 27.5586 68.531 27.604 68.5131C27.6495 68.4952 27.7001 68.4961 27.7449 68.5154C27.7897 68.5347 27.8249 68.5709 27.8428 68.6161L30.6528 75.7009L32.8561 75.9155C32.8946 75.9192 32.9309 75.9349 32.9599 75.9604C32.9889 75.9859 33.0091 76.0198 33.0176 76.0573L34.2574 81.4531L40.3229 84.1148C40.3602 84.1314 40.3909 84.1599 40.4101 84.1958C40.4293 84.2316 40.4359 84.2729 40.429 84.3129C40.4221 84.353 40.402 84.3897 40.3718 84.4171C40.3417 84.4446 40.3032 84.4613 40.2625 84.4646L40.2627 84.4669Z" fill="url(#paint21_linear_2615_336)"/>
<path d="M41.5271 82.543C41.503 82.5447 41.4789 82.5402 41.457 82.53C41.4407 82.5223 41.426 82.5114 41.4139 82.4981C41.4017 82.4848 41.3924 82.4692 41.3863 82.4522C41.3802 82.4353 41.3776 82.4173 41.3785 82.3993C41.3794 82.3813 41.3839 82.3637 41.3916 82.3474L44.0694 76.7001L43.3205 73.6841C43.3135 73.6563 43.3156 73.627 43.3263 73.6003C43.337 73.5737 43.3559 73.5512 43.3803 73.5358L45.7701 72.0212L44.4532 63.2815C44.4477 63.2455 44.4568 63.2088 44.4785 63.1795C44.5002 63.1501 44.5328 63.1306 44.569 63.1251C44.6052 63.1196 44.642 63.1286 44.6715 63.1502C44.701 63.1718 44.7206 63.2042 44.7261 63.2402L46.0561 72.0684C46.0603 72.0948 46.0567 72.1218 46.0456 72.1461C46.0346 72.1705 46.0165 72.191 45.9938 72.2053L43.6122 73.7147L44.3495 76.6814C44.3569 76.712 44.3534 76.7441 44.3396 76.7725L41.6411 82.4639C41.6307 82.4859 41.6147 82.5048 41.5947 82.5187C41.5747 82.5325 41.5514 82.541 41.5271 82.543V82.543Z" fill="url(#paint22_linear_2615_336)"/>
<path d="M38.1198 92.3742C38.1198 92.3742 24.5549 101.459 19.2345 95.0174C18.1298 93.6797 17.7813 92.2917 17.9237 90.9318C13.5039 89.1249 9.11055 88.8453 6.70922 88.8561C6.33663 92.1717 6.93855 95.6206 9.14004 98.9821C18.7151 113.601 40.2689 95.7105 40.2689 95.7105L38.1198 92.3742Z" fill="#91B3FA"/>
<path d="M37.2011 102.605L42.85 75.0847C42.8811 74.9322 42.9568 74.7922 43.0677 74.6825C43.1786 74.5727 43.3196 74.4981 43.473 74.468C44.8634 74.1953 48.8932 73.4216 53.5569 72.6611C59.1735 71.7453 65.7099 70.8483 69.6586 70.8676C69.7882 70.8677 69.9158 70.8995 70.0302 70.96C70.1446 71.0206 70.2423 71.1081 70.3148 71.215C70.3873 71.3218 70.4324 71.4447 70.4462 71.573C70.4599 71.7013 70.4419 71.831 70.3937 71.9507C68.5121 76.6174 60.7552 95.6087 56.6261 101.953C56.559 102.057 56.4686 102.144 56.3619 102.206C56.2553 102.269 56.1355 102.306 56.0119 102.315L38.0353 103.547C37.9135 103.555 37.7914 103.536 37.6785 103.49C37.5656 103.444 37.4649 103.372 37.3842 103.281C37.3035 103.19 37.245 103.082 37.2132 102.965C37.1815 102.847 37.1773 102.724 37.2011 102.605V102.605Z" fill="url(#paint23_linear_2615_336)"/>
<path d="M54.1779 70.2646L59.7204 68.8968C59.788 68.88 59.8587 68.8809 59.9257 68.8994C59.9928 68.9178 60.0539 68.9532 60.1031 69.0022C60.1524 69.0511 60.1881 69.1118 60.2067 69.1786C60.2254 69.2453 60.2264 69.3157 60.2097 69.3829L59.7843 71.1029C59.766 71.1762 59.7274 71.2429 59.673 71.2954C59.6185 71.348 59.5504 71.3843 59.4762 71.4002L54.1292 72.5389C54.0652 72.5525 53.9989 72.5504 53.9359 72.5328C53.873 72.5152 53.8152 72.4827 53.7677 72.4381C53.7201 72.3934 53.6842 72.338 53.6629 72.2764C53.6416 72.2149 53.6356 72.1491 53.6455 72.0848L53.8755 70.5946C53.8875 70.5161 53.9227 70.4428 53.9765 70.3841C54.0303 70.3253 54.1004 70.2838 54.1779 70.2646V70.2646Z" fill="url(#paint24_linear_2615_336)"/>
<path d="M50.3426 75.3225L50.6186 72.8885C50.6321 72.7697 50.6837 72.6584 50.7658 72.571C50.8479 72.4837 50.956 72.425 51.0742 72.4037L62.3246 70.3755C62.4125 70.3597 62.5029 70.365 62.5882 70.3911C62.6735 70.4172 62.7513 70.4632 62.8151 70.5254C62.8789 70.5876 62.9268 70.664 62.9547 70.7484C62.9827 70.8328 62.99 70.9226 62.9759 71.0104L62.4868 74.0548C62.4679 74.1734 62.4109 74.2827 62.3242 74.3663C62.2376 74.4499 62.126 74.5033 62.0063 74.5183L50.9683 75.9363C50.8843 75.947 50.799 75.9386 50.7188 75.9117C50.6386 75.8849 50.5656 75.8402 50.5053 75.781C50.4451 75.7219 50.3991 75.6499 50.3709 75.5705C50.3427 75.4911 50.3331 75.4063 50.3426 75.3225V75.3225Z" fill="url(#paint25_linear_2615_336)"/>
<path d="M38.5661 95.9556C38.5661 95.9556 37.1431 91.6248 37.4568 90.0247C37.7706 88.4245 38.4565 86.3445 41.2992 86.5734C44.1419 86.8023 47.5504 87.7229 47.5504 87.7229C47.5504 87.7229 47.5419 89.7764 45.355 89.2834L46.7589 90.2002C46.7589 90.2002 46.6963 91.8487 44.8243 91.1166L46.1631 92.3727C46.1631 92.3727 45.4927 93.7752 44.0989 93.0175C42.705 92.2597 42.3713 96.1945 38.5661 95.9556Z" fill="url(#paint26_linear_2615_336)"/>
<path d="M25.0742 97.3766C23.7558 97.4792 22.5303 97.3792 21.5706 96.9474C21.5477 96.9381 21.5271 96.9242 21.5097 96.9067C21.4924 96.8893 21.4788 96.8685 21.4697 96.8456C21.4606 96.8228 21.4563 96.7984 21.4569 96.7738C21.4575 96.7493 21.463 96.7251 21.4732 96.7027C21.4834 96.6803 21.4979 96.6602 21.5161 96.6435C21.5342 96.6268 21.5555 96.614 21.5788 96.6057C21.602 96.5974 21.6267 96.5938 21.6513 96.5952C21.676 96.5966 21.7001 96.6029 21.7222 96.6137C25.6608 98.3855 34.7205 94.1222 34.8118 94.0788C34.8365 94.0676 36.6011 93.2995 37.1515 91.9898C37.1719 91.9474 37.2078 91.9144 37.252 91.8976C37.2961 91.8808 37.345 91.8816 37.3886 91.8997C37.4321 91.9179 37.467 91.952 37.486 91.995C37.505 92.038 37.5066 92.0867 37.4906 92.1309C36.8826 93.5787 35.0415 94.379 34.9634 94.4121C34.6768 94.5471 29.3778 97.0417 25.0742 97.3766Z" fill="url(#paint27_linear_2615_336)"/>
<path d="M20.4955 104.733C20.3969 104.741 20.3159 104.747 20.3043 104.648C20.2927 104.548 20.37 104.495 20.4697 104.48C31.2169 103.273 36.9695 97.9048 37.0265 97.8502C37.0447 97.8341 37.0658 97.8218 37.0887 97.8138C37.1117 97.8059 37.136 97.8025 37.1602 97.804C37.1845 97.8054 37.2082 97.8115 37.23 97.8221C37.2519 97.8326 37.2714 97.8473 37.2875 97.8654C37.3575 97.9372 37.3494 97.9826 37.2765 98.0523C37.2187 98.1078 31.4 103.881 20.4991 104.73L20.4955 104.733Z" fill="url(#paint28_linear_2615_336)"/>
<path d="M44.0115 40.4621C44.0115 40.4621 46.6734 47.8163 46.6416 51.5833C46.6097 55.3502 47.2604 57.8403 42.85 58.3179C38.4396 58.7954 34.9053 56.3977 33.1592 52.5298C33.1592 52.5298 30.4163 46.5669 31.2701 44.2515C32.1238 41.9362 44.0115 40.4621 44.0115 40.4621Z" fill="url(#paint29_linear_2615_336)"/>
<path d="M26.4248 42.2507C27.3207 41.5943 27.9492 41.7461 28.3308 42.0144C28.3783 42.0482 28.4348 42.0673 28.4932 42.0692C28.5516 42.0711 28.6092 42.0558 28.6589 42.0251C28.6596 41.9139 28.7764 34.176 39.4032 34.7086C39.9431 34.7356 40.4791 34.6021 40.9428 34.325C41.4065 34.0479 41.7769 33.6398 42.0069 33.1525C43.0816 30.8748 45.1913 27.485 47.2175 30.4788C50.0993 34.7378 51.306 40.526 44.2199 42.2926C43.8007 42.3978 43.3764 42.488 42.9498 42.5675C40.0428 43.5256 36.6845 44.0178 35.4576 44.429C33.4083 45.1158 35.3817 49.8323 35.3817 49.8323L34.8306 49.7979L33.6551 49.7227C33.4844 49.712 33.3349 49.9143 33.3342 50.085L33.3217 53.4127C33.3219 53.484 33.2978 53.5533 33.2532 53.6093C33.2087 53.6652 33.1464 53.7044 33.0765 53.7205C32.5498 53.8194 31.1672 53.8745 28.9274 52.4916C26.738 51.1395 27.6704 50.2942 28.2837 49.9515C28.3229 49.928 28.3561 49.8956 28.3805 49.8571C28.405 49.8185 28.42 49.7748 28.4244 49.7294C28.4287 49.684 28.4224 49.6382 28.4058 49.5958C28.3892 49.5533 28.3628 49.5153 28.3288 49.4848C25.2615 46.6384 24.8664 43.3957 26.4248 42.2507Z" fill="url(#paint30_linear_2615_336)"/>
<path d="M34.9126 50.6324C34.9126 50.6324 34.0174 45.9857 31.8753 47.1352C29.7332 48.2847 32.6098 52.3278 34.253 52.6014L34.9126 50.6324Z" fill="url(#paint31_linear_2615_336)"/>
<path d="M45.9741 40.734C45.9454 40.7322 45.918 40.722 45.8951 40.7048C45.8722 40.6875 45.8548 40.664 45.8452 40.6371C45.8356 40.6101 45.8341 40.581 45.841 40.5532C45.8479 40.5255 45.8628 40.5003 45.8838 40.4809C47.3038 39.1722 48.027 37.7308 48.0325 36.1971C48.0459 33.5287 45.8662 31.454 45.8445 31.4333C45.8185 31.4062 45.804 31.3703 45.804 31.3328C45.8039 31.2954 45.8182 31.2594 45.844 31.2321C45.8699 31.2049 45.9052 31.1885 45.9427 31.1864C45.9803 31.1843 46.0172 31.1966 46.0459 31.2208C46.1396 31.3085 48.3383 33.3994 48.3264 36.1959C48.3199 37.8177 47.5618 39.3289 46.0819 40.694C46.0676 40.7075 46.0507 40.7181 46.0321 40.725C46.0136 40.7319 45.9939 40.7349 45.9741 40.734V40.734Z" fill="#91B3FA"/>
<defs>
<linearGradient id="paint0_linear_2615_336" x1="78.7077" y1="225.058" x2="146.89" y2="102.934" gradientUnits="userSpaceOnUse">
<stop stop-color="#EBEFF2"/>
<stop offset="1" stop-color="white"/>
</linearGradient>
<linearGradient id="paint1_linear_2615_336" x1="49102.5" y1="75357.5" x2="63711.4" y2="106623" gradientUnits="userSpaceOnUse">
<stop stop-color="#FFC444"/>
<stop offset="1" stop-color="#F36F56"/>
</linearGradient>
<linearGradient id="paint2_linear_2615_336" x1="57545.4" y1="67152.3" x2="71923" y2="96984.2" gradientUnits="userSpaceOnUse">
<stop stop-color="#FFC444"/>
<stop offset="1" stop-color="#F36F56"/>
</linearGradient>
<linearGradient id="paint3_linear_2615_336" x1="63920.1" y1="59960.9" x2="78074.2" y2="88453.6" gradientUnits="userSpaceOnUse">
<stop stop-color="#FFC444"/>
<stop offset="1" stop-color="#F36F56"/>
</linearGradient>
<linearGradient id="paint4_linear_2615_336" x1="27075.6" y1="79821.7" x2="43314" y2="78551.1" gradientUnits="userSpaceOnUse">
<stop stop-color="#FFC444"/>
<stop offset="1" stop-color="#F36F56"/>
</linearGradient>
<linearGradient id="paint5_linear_2615_336" x1="37724" y1="36198.9" x2="53958.9" y2="34928.6" gradientUnits="userSpaceOnUse">
<stop stop-color="#311944"/>
<stop offset="1" stop-color="#893976"/>
</linearGradient>
<linearGradient id="paint6_linear_2615_336" x1="162.596" y1="88.7377" x2="135.548" y2="1.99755" gradientUnits="userSpaceOnUse">
<stop stop-color="#E38DDD"/>
<stop offset="1" stop-color="#9571F6"/>
</linearGradient>
<linearGradient id="paint7_linear_2615_336" x1="69089.1" y1="67648.6" x2="94972.2" y2="58764.2" gradientUnits="userSpaceOnUse">
<stop stop-color="#311944"/>
<stop offset="1" stop-color="#893976"/>
</linearGradient>
<linearGradient id="paint8_linear_2615_336" x1="-14017.5" y1="69380.9" x2="81848.1" y2="66357.3" gradientUnits="userSpaceOnUse">
<stop stop-color="#311944"/>
<stop offset="1" stop-color="#893976"/>
</linearGradient>
<linearGradient id="paint9_linear_2615_336" x1="-140257" y1="110122" x2="-122966" y2="108777" gradientUnits="userSpaceOnUse">
<stop stop-color="#09005D"/>
<stop offset="1" stop-color="#1A0F91"/>
</linearGradient>
<linearGradient id="paint10_linear_2615_336" x1="32.7098" y1="-4.59584" x2="83.3789" y2="62.0775" gradientUnits="userSpaceOnUse">
<stop stop-color="#FEBBBA"/>
<stop offset="1" stop-color="#FDACA9"/>
</linearGradient>
<linearGradient id="paint11_linear_2615_336" x1="11.1883" y1="77.1428" x2="11.4553" y2="77.1221" gradientUnits="userSpaceOnUse">
<stop stop-color="#09005D"/>
<stop offset="1" stop-color="#1A0F91"/>
</linearGradient>
<linearGradient id="paint12_linear_2615_336" x1="108.143" y1="81.3374" x2="108.147" y2="81.3425" gradientUnits="userSpaceOnUse">
<stop stop-color="#53EAC9"/>
<stop offset="1" stop-color="#45AED8"/>
</linearGradient>
<linearGradient id="paint13_linear_2615_336" x1="-68834.7" y1="34977.8" x2="-73163.3" y2="47525.6" gradientUnits="userSpaceOnUse">
<stop stop-color="#09005D"/>
<stop offset="1" stop-color="#1A0F91"/>
</linearGradient>
<linearGradient id="paint14_linear_2615_336" x1="-17490.5" y1="17695.7" x2="-17150.2" y2="17669.2" gradientUnits="userSpaceOnUse">
<stop stop-color="#FEBBBA"/>
<stop offset="1" stop-color="#FF928E"/>
</linearGradient>
<linearGradient id="paint15_linear_2615_336" x1="-45351.9" y1="168781" x2="-72806.9" y2="179313" gradientUnits="userSpaceOnUse">
<stop stop-color="#09005D"/>
<stop offset="1" stop-color="#1A0F91"/>
</linearGradient>
<linearGradient id="paint16_linear_2615_336" x1="-27907.5" y1="26230.5" x2="-33527.8" y2="33391.8" gradientUnits="userSpaceOnUse">
<stop stop-color="#09005D"/>
<stop offset="1" stop-color="#1A0F91"/>
</linearGradient>
<linearGradient id="paint17_linear_2615_336" x1="-15510.7" y1="22501.1" x2="-15257" y2="22481.4" gradientUnits="userSpaceOnUse">
<stop stop-color="#FEBBBA"/>
<stop offset="1" stop-color="#FF928E"/>
</linearGradient>
<linearGradient id="paint18_linear_2615_336" x1="-72965.8" y1="167346" x2="-108836" y2="185572" gradientUnits="userSpaceOnUse">
<stop stop-color="#09005D"/>
<stop offset="1" stop-color="#1A0F91"/>
</linearGradient>
<linearGradient id="paint19_linear_2615_336" x1="-51164.8" y1="25573.6" x2="-50116" y2="24951.1" gradientUnits="userSpaceOnUse">
<stop stop-color="#FEBBBA"/>
<stop offset="0.90625" stop-color="#FFB3B0"/>
</linearGradient>
<linearGradient id="paint20_linear_2615_336" x1="42.6147" y1="83.6212" x2="65.0425" y2="64.5901" gradientUnits="userSpaceOnUse">
<stop stop-color="#9CFFFB"/>
<stop offset="1" stop-color="#9BFFFA"/>
</linearGradient>
<linearGradient id="paint21_linear_2615_336" x1="-42824.1" y1="31015.7" x2="-42277.4" y2="30688.1" gradientUnits="userSpaceOnUse">
<stop stop-color="#DAE3FE"/>
<stop offset="1" stop-color="#E9EFFD"/>
</linearGradient>
<linearGradient id="paint22_linear_2615_336" x1="-17724.6" y1="31477.2" x2="-17339.3" y2="31447.3" gradientUnits="userSpaceOnUse">
<stop stop-color="#DAE3FE"/>
<stop offset="1" stop-color="#E9EFFD"/>
</linearGradient>
<linearGradient id="paint23_linear_2615_336" x1="-123461" y1="28879.7" x2="-103984" y2="52988.7" gradientUnits="userSpaceOnUse">
<stop stop-color="#4F52FF"/>
<stop offset="1" stop-color="#4042E2"/>
</linearGradient>
<linearGradient id="paint24_linear_2615_336" x1="-16948" y1="5086.51" x2="-16906.2" y2="5622.54" gradientUnits="userSpaceOnUse">
<stop stop-color="#09005D"/>
<stop offset="1" stop-color="#1A0F91"/>
</linearGradient>
<linearGradient id="paint25_linear_2615_336" x1="-32997.1" y1="6527.7" x2="-32845.3" y2="8259.33" gradientUnits="userSpaceOnUse">
<stop stop-color="#09005D"/>
<stop offset="1" stop-color="#1A0F91"/>
</linearGradient>
<linearGradient id="paint26_linear_2615_336" x1="-37740.1" y1="19747.9" x2="-36359.8" y2="19640.5" gradientUnits="userSpaceOnUse">
<stop stop-color="#FEBBBA"/>
<stop offset="1" stop-color="#FF9D9A"/>
</linearGradient>
<linearGradient id="paint27_linear_2615_336" x1="-64849" y1="13474.4" x2="-61397.5" y2="13205.8" gradientUnits="userSpaceOnUse">
<stop stop-color="#DAE3FE"/>
<stop offset="1" stop-color="#E9EFFD"/>
</linearGradient>
<linearGradient id="paint28_linear_2615_336" x1="-69643" y1="16335.5" x2="-65694.7" y2="16028.3" gradientUnits="userSpaceOnUse">
<stop stop-color="#DAE3FE"/>
<stop offset="1" stop-color="#E9EFFD"/>
</linearGradient>
<linearGradient id="paint29_linear_2615_336" x1="-117758" y1="24634.6" x2="-121800" y2="26914.1" gradientUnits="userSpaceOnUse">
<stop stop-color="#FEBBBA"/>
<stop offset="1" stop-color="#FF928E"/>
</linearGradient>
<linearGradient id="paint30_linear_2615_336" x1="-114141" y1="29111.5" x2="-124751" y2="41639.8" gradientUnits="userSpaceOnUse">
<stop stop-color="#09005D"/>
<stop offset="1" stop-color="#1A0F91"/>
</linearGradient>
<linearGradient id="paint31_linear_2615_336" x1="-27967.3" y1="8451.84" x2="-29080.8" y2="8903.19" gradientUnits="userSpaceOnUse">
<stop stop-color="#FEBBBA"/>
<stop offset="1" stop-color="#FF928E"/>
</linearGradient>
</defs>
</svg>
