<svg width="252" height="252" viewBox="0 0 252 252" fill="none" xmlns="http://www.w3.org/2000/svg">
<g clip-path="url(#clip0_2615_67)">
<path d="M159.834 34.9154L40.1813 30.7729C37.0026 30.6629 33.9037 31.7724 31.5249 33.8724C29.1462 35.9723 27.6694 38.9021 27.3996 42.0565L12.6574 214.427C12.5535 215.643 12.6962 216.868 13.0773 218.028C13.4584 219.189 14.0699 220.262 14.8756 221.182C15.6813 222.103 16.6647 222.853 17.7673 223.389C18.8698 223.924 20.0691 224.233 21.2937 224.297L158.349 231.525C159.501 231.586 160.653 231.418 161.739 231.03C162.824 230.643 163.821 230.044 164.671 229.268C165.521 228.493 166.207 227.556 166.689 226.514C167.171 225.471 167.44 224.343 167.479 223.196L173.427 49.4078C173.49 47.5684 173.189 45.7343 172.54 44.0104C171.891 42.2865 170.907 40.7065 169.645 39.3607C168.382 38.0149 166.866 36.9296 165.183 36.1669C163.5 35.4042 161.682 34.9789 159.834 34.9154Z" fill="#2213AC"/>
<path d="M159.174 37.8606C142.671 37.4146 86.6756 40.0194 40.3409 34.861C39.8396 34.8043 39.3321 34.8481 38.8481 34.9896C38.3642 35.1312 37.9137 35.3677 37.5231 35.6852C37.1325 36.0028 36.8098 36.3949 36.5738 36.8386C36.3379 37.2823 36.1935 37.7686 36.1493 38.2688L20.9536 211.393C20.8534 212.534 21.2104 213.667 21.9469 214.547C22.6833 215.427 23.7393 215.981 24.8842 216.088C44.3836 217.915 124.698 225.15 153.502 223.152C154.348 223.092 155.142 222.724 155.732 222.118C156.323 221.512 156.667 220.71 156.701 219.866L163.671 42.0783C163.695 41.4959 163.593 40.9151 163.372 40.3752C163.15 39.8353 162.815 39.349 162.389 38.949C161.962 38.5491 161.455 38.245 160.9 38.0572C160.346 37.8694 159.757 37.8024 159.174 37.8606Z" fill="url(#paint0_linear_2615_67)"/>
<path d="M92.5668 25.9955L106.184 25.266L107.749 12.91C107.904 11.7041 107.634 10.4817 106.985 9.45115C106.336 8.42057 105.348 7.64554 104.19 7.25809C101.571 6.38943 97.8147 6.20063 93.3906 9.04331C84.7131 14.6199 92.5668 25.9955 92.5668 25.9955ZM95.7491 15.7632C95.7726 15.097 95.994 14.4529 96.3854 13.9122C96.7767 13.3715 97.3204 12.9586 97.9477 12.7256C98.575 12.4925 99.2577 12.4499 99.9096 12.6031C100.562 12.7563 101.153 13.0983 101.61 13.5861C102.067 14.0738 102.368 14.6853 102.476 15.3433C102.584 16.0013 102.494 16.6762 102.216 17.2828C101.939 17.8893 101.487 18.4003 100.918 18.751C100.349 19.1018 99.6877 19.2766 99.0184 19.2534C98.5736 19.238 98.1361 19.1354 97.731 18.9517C97.3259 18.7679 96.9611 18.5064 96.6575 18.1823C96.3538 17.8581 96.1173 17.4776 95.9615 17.0626C95.8056 16.6475 95.7334 16.2059 95.7491 15.7632V15.7632Z" fill="url(#paint1_linear_2615_67)"/>
<path d="M104.933 20.3433C104.756 20.3206 104.596 20.2292 104.486 20.089C104.377 19.9488 104.328 19.7713 104.35 19.5952L104.599 17.6269C104.633 17.4606 104.728 17.3131 104.866 17.214C105.005 17.115 105.175 17.0717 105.345 17.093C105.514 17.1143 105.668 17.1985 105.778 17.3286C105.887 17.4588 105.943 17.6253 105.934 17.7947L105.685 19.7631C105.662 19.9392 105.571 20.0991 105.43 20.2079C105.289 20.3166 105.11 20.3653 104.933 20.3433V20.3433ZM105.421 16.4874C105.244 16.4645 105.084 16.373 104.975 16.2328C104.866 16.0927 104.817 15.9153 104.838 15.7394L105.027 14.2452C105.144 13.3251 104.938 12.3927 104.444 11.6062C103.949 10.8198 103.196 10.2278 102.313 9.93054C100.874 9.45139 99.337 9.33557 97.8416 9.59349C97.6708 9.61188 97.4993 9.56468 97.3622 9.46152C97.2251 9.35836 97.1327 9.20702 97.1038 9.0384C97.075 8.86978 97.1119 8.6966 97.2069 8.55423C97.302 8.41186 97.4482 8.31102 97.6155 8.27232C99.3285 7.97748 101.089 8.11069 102.738 8.66C103.916 9.0556 104.92 9.84454 105.581 10.893C106.241 11.9414 106.517 13.1848 106.362 14.4121L106.173 15.9063C106.157 16.0323 106.106 16.1512 106.024 16.2492C105.943 16.3471 105.836 16.4202 105.715 16.4598C105.62 16.4902 105.52 16.4996 105.421 16.4874Z" fill="#BDD0FB"/>
<path d="M124.439 33.9182L124.653 27.6863C124.67 27.1759 124.584 26.6673 124.4 26.1905C124.216 25.7138 123.937 25.2788 123.581 24.9114C123.224 24.5441 122.797 24.2518 122.324 24.0521C121.852 23.8525 121.344 23.7494 120.831 23.7492L77.6143 23.7262C76.6886 23.7259 75.7964 24.0692 75.1119 24.689C74.4275 25.3088 74 26.1606 73.9132 27.0779L73.3475 33.0535L124.439 33.9182Z" fill="url(#paint2_linear_2615_67)"/>
<path d="M110.466 25.7442L108.611 25.6839C108.524 25.6797 108.442 25.6417 108.383 25.5782C108.324 25.5147 108.293 25.4308 108.295 25.3444C108.298 25.258 108.335 25.1761 108.397 25.1164C108.46 25.0566 108.544 25.0237 108.631 25.0249V25.0249L110.486 25.0851C110.573 25.0889 110.655 25.1266 110.714 25.1901C110.773 25.2536 110.805 25.3377 110.803 25.4243C110.8 25.5109 110.764 25.593 110.701 25.6529C110.638 25.7127 110.554 25.7455 110.467 25.7442L110.466 25.7442Z" fill="#BDD0FB"/>
<path d="M122.39 32.1907C122.521 32.1479 122.636 32.0661 122.719 31.9563C122.802 31.8466 122.849 31.7142 122.853 31.5771L122.939 29.0591C122.975 28.0314 122.599 27.0315 121.895 26.2789C121.19 25.5263 120.215 25.0826 119.182 25.0454L112.352 24.8092C112.173 24.8031 111.999 24.868 111.869 24.9896C111.738 25.1112 111.661 25.2796 111.655 25.4577C111.649 25.6358 111.714 25.809 111.837 25.9392C111.959 26.0695 112.128 26.1461 112.307 26.1522L119.132 26.3879C119.808 26.4122 120.446 26.7022 120.908 27.1944C121.369 27.6866 121.616 28.3407 121.594 29.0133L121.508 31.5312C121.502 31.7087 121.567 31.8811 121.689 32.011C121.81 32.1408 121.979 32.2173 122.157 32.2239C122.236 32.2263 122.315 32.215 122.39 32.1907V32.1907Z" fill="#BDD0FB"/>
<path d="M138.043 32.1054L62.5582 29.4905C61.2434 29.445 59.9551 29.8631 58.9204 30.6709C57.8856 31.4787 57.1709 32.6245 56.9023 33.9062L56.8257 34.2713C56.6832 34.9523 56.692 35.6561 56.8515 36.3335C57.0109 37.0109 57.3172 37.6455 57.7488 38.1929C58.1805 38.7403 58.7271 39.1872 59.3503 39.5024C59.9735 39.8176 60.6584 39.9934 61.3568 40.0175L138.8 42.6989C139.221 42.7133 139.642 42.6424 140.035 42.4904C140.428 42.3385 140.786 42.1087 141.087 41.8149C141.389 41.5212 141.627 41.1695 141.788 40.7814C141.949 40.3932 142.029 39.9765 142.023 39.5566L141.974 36.1024C141.96 35.0614 141.544 34.0654 140.812 33.3212C140.08 32.577 139.088 32.1416 138.043 32.1054Z" fill="url(#paint3_linear_2615_67)"/>
<g opacity="0.61">
<path opacity="0.61" d="M91.9588 194.42L153.37 198.397C154.585 198.476 155.551 197.734 155.528 196.742L155.523 196.552C155.5 195.562 154.499 194.697 153.289 194.619L92.08 190.68C90.8845 190.603 89.8883 191.334 89.8543 192.313L89.8474 192.501C89.8159 193.48 90.7602 194.341 91.9588 194.42Z" fill="white"/>
<path opacity="0.61" d="M153.507 204.493L91.7623 200.455C90.5568 200.377 89.5512 201.12 89.5193 202.117L89.5121 202.307C89.4774 203.307 90.4289 204.182 91.6385 204.262L153.596 208.338C154.821 208.419 155.796 207.668 155.772 206.656L155.768 206.463C155.738 205.453 154.728 204.573 153.507 204.493Z" fill="white"/>
<path opacity="0.61" d="M93.0801 174.351L154.491 178.328C155.706 178.406 156.672 177.664 156.649 176.672L156.645 176.483C156.621 175.493 155.621 174.628 154.41 174.55L93.2005 170.61C92.0058 170.534 91.0096 171.264 90.9756 172.245L90.9687 172.431C90.9371 173.413 91.8805 174.273 93.0801 174.351Z" fill="white"/>
<path opacity="0.61" d="M154.628 184.425L92.8833 180.389C91.6779 180.31 90.6731 181.053 90.6403 182.05L90.634 182.24C90.5993 183.24 91.5508 184.116 92.7647 184.195L154.722 188.271C155.948 188.352 156.922 187.601 156.898 186.589L156.893 186.397C156.859 185.386 155.85 184.505 154.628 184.425Z" fill="white"/>
</g>
<path d="M115.064 54.3047C114.996 55.3513 114.384 56.1696 113.696 56.1338L46.0802 52.4709C45.3225 52.4296 44.7637 51.505 44.8281 50.4059L44.8411 50.2386C44.9056 49.1387 45.5717 48.2816 46.3285 48.3245L113.958 52.1812C114.645 52.2204 115.147 53.101 115.078 54.1484L115.064 54.3047Z" fill="white"/>
<path d="M154.209 66.6636C154.141 67.7086 153.207 68.5078 152.125 68.4488L45.4835 62.6267C44.2905 62.5616 43.372 61.6208 43.4323 60.5197L43.4453 60.3524C43.5055 59.2538 44.526 58.4168 45.7154 58.4849L152.383 64.5018C153.469 64.5627 154.291 65.4607 154.223 66.5057L154.209 66.6636Z" fill="white"/>
<path d="M76.0655 110.706C76.0655 110.706 76.89 108.564 78.4328 108.458C79.9757 108.351 81.2923 108.229 81.6071 109.789C81.922 111.35 81.3522 113.065 78.51 113.083C75.6677 113.101 76.0655 110.706 76.0655 110.706Z" fill="white"/>
<path d="M79.4766 103.476C79.4766 103.476 81.0488 102.938 81.3813 104.282C81.7139 105.625 81.5941 107.154 80.0063 107.914C78.4184 108.675 76.6892 108.33 76.4097 106.326C76.1302 104.322 78.1509 103.595 79.4766 103.476Z" fill="white"/>
<path d="M75.6385 102.08C75.2632 101.329 74.9692 99.3822 76.3483 98.6084C78.1491 97.599 79.0833 97.2846 79.8849 98.2289C80.6865 99.1732 81.4768 101.74 79.963 102.854C78.3379 104.05 76.4819 103.769 75.6385 102.08Z" fill="white"/>
<path d="M76.1507 97.8776C75.9675 97.8909 75.7835 97.8653 75.611 97.8024C75.4385 97.7395 75.2814 97.6408 75.1501 97.5128C74.9311 97.2971 74.7862 97.0181 74.7362 96.7156C74.5859 95.8211 76.2354 94.4102 77.5787 94.0755C78.922 93.7407 80.2997 95.3762 79.1347 96.6245C78.2554 97.5693 77.617 97.788 76.1507 97.8776Z" fill="white"/>
<path d="M73.6116 94.1941C73.6116 94.1941 73.0734 92.6037 74.035 91.5786C74.9966 90.5536 75.703 89.9513 76.7609 90.4813C77.8188 91.0113 78.7916 92.6338 77.395 93.6208C75.9984 94.6079 74.4016 95.3647 73.6116 94.1941Z" fill="white"/>
<path d="M72.4201 91.252C72.3037 91.212 72.1984 91.145 72.1129 91.0566C72.0275 90.9681 71.9644 90.8608 71.9288 90.7434C71.7984 90.337 71.7638 89.9063 71.8277 89.4847C71.8916 89.0631 72.0523 88.6619 72.2972 88.3122C73.2758 86.8735 73.7391 86.4821 74.7631 87.2198C75.7871 87.9576 76.1652 88.6393 75.9008 89.2667C75.6364 89.8941 74.4782 90.8812 73.8012 91.2585C73.3664 91.4999 72.7844 91.3738 72.4201 91.252Z" fill="white"/>
<path d="M69.9911 85.0693C69.9911 85.0693 70.538 83.9639 71.839 84.9985C73.14 86.033 73.5759 86.2984 73.0656 86.9453C72.5553 87.5923 71.5186 89.1157 70.1639 88.7712C68.8091 88.4268 68.9688 86.364 69.9911 85.0693Z" fill="white"/>
<path d="M66.8349 87.4394C66.1718 87.3878 65.9855 86.9239 65.8332 86.0234C65.6809 85.1229 65.8183 83.3579 66.0735 82.9359C66.3287 82.514 67.195 82.812 68.0595 83.1098C68.9241 83.4077 69.7888 83.7039 69.7546 84.1439C69.7204 84.5839 69.0829 87.6261 66.8349 87.4394Z" fill="white"/>
<path d="M51.4886 108.927C51.4886 108.927 50.9888 106.657 49.4332 106.32C47.8775 105.982 46.5407 105.658 45.9679 107.184C45.3951 108.709 45.7079 110.524 48.6201 110.956C51.5322 111.387 51.4886 108.927 51.4886 108.927Z" fill="white"/>
<path d="M49.1561 101.155C49.1561 101.155 47.6324 100.363 47.0778 101.666C46.5232 102.97 46.402 104.527 47.9098 105.534C49.4175 106.542 51.2297 106.451 51.8341 104.486C52.4385 102.52 50.4875 101.483 49.1561 101.155Z" fill="white"/>
<path d="M53.2827 100.354C53.7805 99.6619 54.3849 97.7624 53.111 96.7696C51.4411 95.4673 50.5431 95.0011 49.5713 95.8208C48.5994 96.6406 47.3844 99.096 48.7582 100.456C50.2288 101.908 52.1611 101.914 53.2827 100.354Z" fill="white"/>
<path d="M53.4256 96.0737C53.6084 96.1164 53.7982 96.1203 53.9825 96.0852C54.1669 96.0501 54.3418 95.9768 54.4958 95.87C54.7502 95.6907 54.9404 95.4351 55.0387 95.1406C55.3312 94.2722 53.8842 92.5926 52.5745 92.0388C51.2648 91.4849 49.5979 92.8927 50.5888 94.3373C51.3381 95.4215 51.9524 95.742 53.4256 96.0737Z" fill="white"/>
<path d="M56.5687 92.8082C56.5687 92.8082 57.3616 91.3122 56.553 90.1308C55.7445 88.9495 55.1269 88.2273 53.9735 88.5769C52.8201 88.9264 51.5767 90.3891 52.8362 91.6097C54.0957 92.8303 55.5894 93.8437 56.5687 92.8082Z" fill="white"/>
<path d="M58.2265 90.0736C58.3491 90.0535 58.465 90.0045 58.5646 89.9307C58.6642 89.8569 58.7445 89.7604 58.799 89.6494C58.9931 89.265 59.0951 88.8411 59.097 88.4109C59.099 87.9806 59.0008 87.5556 58.8102 87.1693C58.0534 85.5737 57.6496 85.1013 56.5036 85.6601C55.3576 86.219 54.8666 86.8355 55.035 87.5075C55.2034 88.1796 56.2158 89.3591 56.8397 89.8487C57.2381 90.1616 57.8422 90.1337 58.2265 90.0736Z" fill="white"/>
<path d="M61.6189 84.3454C61.6189 84.3454 61.2464 83.1559 59.7891 83.9555C58.3318 84.7552 57.845 84.9479 58.2557 85.6784C58.6665 86.4088 59.4666 88.0995 60.8731 87.9859C62.2795 87.8724 62.4353 85.805 61.6189 84.3454Z" fill="white"/>
<path d="M64.385 87.2277C65.0489 87.2794 65.3038 86.8616 65.5942 85.9981C65.8846 85.1345 66.021 83.3711 65.8344 82.9114C65.6478 82.4517 64.7456 82.5936 63.8425 82.7371C62.9393 82.8805 62.0345 83.0239 62.0001 83.4655C61.9657 83.9072 62.1247 87.0358 64.385 87.2277Z" fill="white"/>
<path d="M75.5558 117.256C75.5558 117.256 76.0396 119.491 77.5492 119.812C79.0588 120.133 80.3421 120.439 80.895 118.941C81.4479 117.442 81.1499 115.665 78.3414 115.249C75.5329 114.834 75.5558 117.256 75.5558 117.256Z" fill="white"/>
<path d="M77.8105 124.886C77.8105 124.886 79.2822 125.639 79.8191 124.356C80.3561 123.074 80.4741 121.546 79.0214 120.571C77.5687 119.595 75.8048 119.695 75.2182 121.637C74.6317 123.579 76.5177 124.583 77.8105 124.886Z" fill="white"/>
<path d="M73.7983 125.727C73.3108 126.418 72.7185 128.303 73.9629 129.261C75.5878 130.513 76.4631 130.955 77.4021 130.133C78.3411 129.312 79.5201 126.884 78.1955 125.566C76.773 124.159 74.8938 124.176 73.7983 125.727Z" fill="white"/>
<path d="M73.6543 129.957C73.4741 129.918 73.2877 129.917 73.1073 129.955C72.927 129.993 72.7568 130.069 72.6081 130.177C72.3584 130.359 72.1721 130.614 72.0754 130.907C71.7883 131.771 73.2013 133.398 74.4784 133.914C75.7555 134.43 77.3711 133.009 76.412 131.611C75.6883 130.557 75.0906 130.252 73.6543 129.957Z" fill="white"/>
<path d="M70.573 133.242C70.573 133.242 69.7945 134.739 70.5869 135.888C71.3794 137.037 71.9848 137.731 73.1132 137.355C74.2416 136.979 75.455 135.511 74.2264 134.339C72.9978 133.167 71.5354 132.197 70.573 133.242Z" fill="white"/>
<path d="M68.939 135.987C68.8173 136.01 68.7028 136.061 68.6047 136.137C68.5066 136.212 68.4277 136.309 68.3742 136.421C68.1825 136.801 68.0817 137.221 68.0796 137.647C68.0776 138.073 68.1743 138.494 68.3623 138.877C69.1077 140.435 69.5052 140.89 70.6322 140.303C71.7593 139.717 72.2388 139.096 72.0744 138.438C71.91 137.78 70.9172 136.642 70.306 136.174C69.9133 135.874 69.3181 135.917 68.939 135.987Z" fill="white"/>
<path d="M65.5794 141.761C65.5794 141.761 65.9492 142.93 67.3961 142.09C68.843 141.25 69.3153 141.047 68.9107 140.337C68.5061 139.626 67.7166 137.972 66.3232 138.124C64.9298 138.277 64.7687 140.336 65.5794 141.761Z" fill="white"/>
<path d="M62.8242 138.977C62.16 138.94 61.9043 139.368 61.6143 140.238C61.3242 141.107 61.1869 142.872 61.3741 143.325C61.5612 143.777 62.4641 143.605 63.3653 143.432C64.2664 143.26 65.1677 143.087 65.2017 142.65C65.2357 142.212 65.0768 139.104 62.8242 138.977Z" fill="white"/>
<path d="M50.9718 115.566C50.9718 115.566 50.1262 117.742 48.5352 117.858C46.9443 117.974 45.572 118.105 45.2416 116.517C44.9112 114.928 45.5016 113.176 48.4486 113.158C51.3956 113.141 50.9718 115.566 50.9718 115.566Z" fill="white"/>
<path d="M47.4619 122.926C47.4619 122.926 45.8326 123.492 45.4856 122.128C45.1386 120.764 45.26 119.204 46.9072 118.419C48.5544 117.634 50.3327 117.978 50.6263 120.008C50.9199 122.037 48.8294 122.791 47.4619 122.926Z" fill="white"/>
<path d="M51.4195 124.298C51.8047 125.052 52.1084 127.016 50.6948 127.819C48.8415 128.873 47.8811 129.209 47.0466 128.264C46.2121 127.318 45.3907 124.717 46.9599 123.565C48.6394 122.333 50.5516 122.597 51.4195 124.298Z" fill="white"/>
<path d="M50.8979 128.555C51.0843 128.538 51.2722 128.561 51.4493 128.621C51.6263 128.682 51.7884 128.779 51.9248 128.907C52.149 129.12 52.2979 129.4 52.3489 129.704C52.5038 130.604 50.8127 132.062 49.4318 132.423C48.051 132.783 46.6198 131.161 47.8236 129.871C48.7325 128.904 49.3897 128.673 50.8979 128.555Z" fill="white"/>
<path d="M53.5015 132.223C53.5015 132.223 54.0541 133.813 53.0716 134.869C52.089 135.924 51.3663 136.551 50.2797 136.043C49.193 135.535 48.1895 133.915 49.6243 132.884C51.059 131.852 52.6931 131.062 53.5015 132.223Z" fill="white"/>
<path d="M54.7179 135.16C54.8359 135.197 54.9432 135.261 55.0304 135.349C55.1177 135.436 55.1822 135.543 55.2184 135.66C55.3508 136.07 55.386 136.505 55.3214 136.931C55.2567 137.357 55.0939 137.761 54.8457 138.114C53.8501 139.587 53.3777 139.997 52.3307 139.283C51.2837 138.57 50.8935 137.891 51.164 137.25C51.4346 136.609 52.6185 135.585 53.3114 135.188C53.7539 134.935 54.3472 135.046 54.7179 135.16Z" fill="white"/>
<path d="M57.1862 141.305C57.1862 141.305 56.6336 142.43 55.3161 141.434C53.9985 140.438 53.5468 140.181 54.0661 139.515C54.5855 138.849 55.6385 137.29 57.0121 137.599C58.3857 137.908 58.2199 139.973 57.1862 141.305Z" fill="white"/>
<path d="M60.3686 138.839C61.0336 138.876 61.2207 139.33 61.3743 140.225C61.5278 141.12 61.3898 142.883 61.1341 143.312C60.8783 143.74 60.0077 143.477 59.1369 143.204C58.2661 142.932 57.393 142.667 57.4274 142.225C57.4618 141.784 58.1033 138.712 60.3686 138.839Z" fill="white"/>
<path opacity="0.86" d="M39.1721 148.098C38.3748 148.035 37.635 147.66 37.1152 147.054C36.5954 146.449 36.3381 145.663 36.3998 144.87L41.7349 76.3133C41.7869 75.6697 42.0813 75.0695 42.5591 74.6331C43.0369 74.1967 43.6629 73.9561 44.3116 73.9597L44.3234 73.9606L87.3537 76.1227C87.9286 76.1516 88.4918 76.2948 89.0103 76.5439C89.5288 76.793 89.9919 77.143 90.3723 77.5732C90.7528 78.0033 91.0428 78.5049 91.2254 79.0484C91.4079 79.5918 91.4792 80.1661 91.4351 80.7373L86.4584 145.102C86.3583 146.464 85.7273 147.734 84.7 148.639C83.6727 149.545 82.3304 150.015 80.9593 149.949L39.2765 148.104L39.1721 148.098ZM44.3006 74.5244C43.7959 74.5228 43.3093 74.7109 42.938 75.0509C42.5668 75.391 42.3381 75.8581 42.2978 76.3588L36.9628 144.914C36.9376 145.241 36.9786 145.569 37.0836 145.88C37.1886 146.191 37.3553 146.477 37.5739 146.723C37.7925 146.968 38.0584 147.167 38.3558 147.307C38.6532 147.448 38.976 147.528 39.305 147.542L80.9877 149.387C82.2125 149.446 83.4116 149.026 84.3291 148.217C85.2467 147.408 85.81 146.274 85.8989 145.057L90.8755 80.6929C90.914 80.1966 90.8521 79.6976 90.6936 79.2254C90.535 78.7532 90.283 78.3173 89.9525 77.9436C89.6219 77.5698 89.2195 77.2658 88.7689 77.0494C88.3184 76.833 87.829 76.7087 87.3295 76.6838L44.3006 74.5244Z" fill="white"/>
<g opacity="0.9">
<path opacity="0.9" d="M96.7871 109.008L150.72 112.538C151.787 112.608 152.641 111.859 152.626 110.867L152.623 110.678C152.609 109.688 151.736 108.831 150.673 108.759L96.9185 105.265C95.8686 105.197 94.9886 105.935 94.9513 106.914L94.9443 107.101C94.9108 108.086 95.7339 108.939 96.7871 109.008Z" fill="white"/>
<path opacity="0.9" d="M150.792 118.631L96.5668 115.043C95.5086 114.972 94.62 115.723 94.5821 116.72L94.5749 116.91C94.5369 117.909 95.3672 118.778 96.4287 118.849L150.838 122.473C151.915 122.545 152.776 121.783 152.762 120.772L152.759 120.58C152.748 119.576 151.865 118.703 150.792 118.631Z" fill="white"/>
<path opacity="0.9" d="M95.2987 130.393L149.232 133.923C150.298 133.993 151.152 133.244 151.137 132.253L151.134 132.063C151.121 131.074 150.247 130.217 149.185 130.144L95.4302 126.649C94.3804 126.581 93.5003 127.319 93.4629 128.299L93.456 128.486C93.4224 129.471 94.2489 130.324 95.2987 130.393Z" fill="white"/>
<path opacity="0.9" d="M149.304 140.017L95.0792 136.429C94.021 136.359 93.1323 137.11 93.0945 138.106L93.0873 138.297C93.0493 139.295 93.8797 140.164 94.9412 140.234L149.35 143.86C150.427 143.932 151.288 143.169 151.274 142.158L151.272 141.966C151.258 140.961 150.377 140.088 149.304 140.017Z" fill="white"/>
<path opacity="0.9" d="M97.9166 88.9409L151.85 92.4714C152.916 92.541 153.77 91.792 153.755 90.8003L153.752 90.6115C153.739 89.6217 152.866 88.7644 151.803 88.6926L98.048 85.1986C96.999 85.1305 96.1181 85.8681 96.0808 86.8473L96.0738 87.0344C96.0403 88.019 96.8634 88.8724 97.9166 88.9409Z" fill="white"/>
<path opacity="0.9" d="M151.922 98.565L97.6981 94.9747C96.6391 94.9049 95.7505 95.6546 95.7126 96.6514L95.7054 96.8419C95.6674 97.8413 96.4977 98.7096 97.5601 98.7804L151.969 102.405C153.045 102.477 153.907 101.715 153.893 100.704L153.891 100.511C153.876 99.5089 152.995 98.6367 151.922 98.565Z" fill="white"/>
</g>
<path d="M60.2358 191.485C60.2358 191.485 58.664 222.655 51.7389 224.631C51.1741 224.793 50.6888 224.76 50.2708 224.566C45.5681 222.401 49.3715 199.719 43.0584 197.763L36.1149 197.317C29.0243 198.542 30.687 225.696 24.0697 222.855C23.6801 222.681 23.3294 222.431 23.0385 222.119C23.0181 222.097 22.9954 222.074 22.9742 222.052C17.7352 216.39 19.8835 188.893 19.8835 188.893C14.6637 179.179 16.9731 166.608 16.9731 166.608C16.9465 158.741 27.0228 152.809 32.4105 156.583C35.7184 158.901 39.5202 160.012 41.9638 160.527C44.0243 160.364 47.057 159.914 50.0677 158.701C50.709 158.445 51.3366 158.157 51.9479 157.836C57.7742 154.783 67.0086 161.956 65.9758 169.755C65.9759 169.753 66.6601 182.519 60.2358 191.485Z" fill="white"/>
<path opacity="0.2" d="M60.2357 191.485C60.2357 191.485 58.664 222.655 51.7388 224.631C51.174 224.792 50.6886 224.761 50.2706 224.567C56.0166 220.348 54.3314 196.337 52.9402 193.169C51.5367 189.974 56.4792 184.569 59.0663 173.782C61.6533 162.994 50.0678 158.698 50.0678 158.698C50.7091 158.443 51.3366 158.155 51.9479 157.836C57.7741 154.783 67.0086 161.955 65.9758 169.755C65.9759 169.753 66.6601 182.519 60.2357 191.485Z" fill="url(#paint4_linear_2615_67)"/>
<path opacity="0.3" d="M37.6308 197.414L36.1195 197.317C29.029 198.542 30.6916 225.697 24.0744 222.855C23.6847 222.681 23.3341 222.431 23.0432 222.119C28.4804 224.673 29.35 202.989 30.4955 199.468C31.6411 195.948 37.6308 197.414 37.6308 197.414Z" fill="url(#paint5_linear_2615_67)"/>
<path d="M105.28 195.642C105.28 195.642 103.708 226.812 96.7832 228.788C96.2184 228.949 95.7332 228.917 95.3152 228.723C90.6125 226.558 94.4158 203.876 88.1028 201.92L81.1593 201.474C74.0695 202.699 75.7314 229.853 69.1141 227.012C68.7247 226.838 68.3743 226.588 68.0837 226.277C68.0625 226.254 68.0398 226.231 68.0186 226.209C62.7795 220.546 64.9286 193.05 64.9286 193.05C59.7089 183.335 62.0182 170.765 62.0182 170.765C61.9909 162.898 72.0671 156.966 77.4548 160.74C80.7627 163.058 84.5646 164.169 87.0089 164.684C89.0687 164.52 92.1013 164.071 95.1128 162.859C95.753 162.603 96.3798 162.314 96.9906 161.995C102.817 158.941 112.051 166.114 111.018 173.913C111.018 173.91 111.699 186.676 105.28 195.642Z" fill="white"/>
<path opacity="0.2" d="M105.28 195.641C105.28 195.641 103.708 226.811 96.7834 228.787C96.2185 228.949 95.7332 228.918 95.3152 228.724C101.061 224.504 99.3759 200.493 97.9847 197.326C96.5812 194.131 101.524 188.725 104.112 177.938C106.699 167.151 95.1131 162.855 95.1131 162.855C95.7534 162.599 96.3801 162.311 96.991 161.991C102.817 158.937 112.052 166.111 111.018 173.909C111.018 173.909 111.699 186.675 105.28 195.641Z" fill="url(#paint6_linear_2615_67)"/>
<path opacity="0.3" d="M82.67 201.567L81.1588 201.47C74.069 202.695 75.7309 229.85 69.1136 227.008C68.7242 226.834 68.3738 226.584 68.0831 226.273C73.5204 228.826 74.3892 207.142 75.5355 203.622C76.6818 200.102 82.67 201.567 82.67 201.567Z" fill="url(#paint7_linear_2615_67)"/>
<path d="M150.492 197.283C150.492 197.283 148.921 228.453 141.996 230.429C141.431 230.59 140.945 230.558 140.527 230.364C135.825 228.199 139.628 205.517 133.315 203.561L126.372 203.115C119.281 204.34 120.944 231.494 114.326 228.653C113.937 228.479 113.586 228.228 113.296 227.917L113.231 227.85C107.992 222.187 110.141 194.691 110.141 194.691C104.92 184.976 107.23 172.407 107.23 172.407C107.203 164.539 117.279 158.607 122.667 162.38C125.975 164.699 129.777 165.81 132.221 166.325C134.281 166.161 137.314 165.712 140.324 164.499C140.965 164.243 141.591 163.955 142.202 163.636C148.029 160.582 157.264 167.755 156.23 175.554C156.23 175.551 156.911 188.317 150.492 197.283Z" fill="white"/>
<path opacity="0.2" d="M150.492 197.283C150.492 197.283 148.921 228.453 141.996 230.429C141.431 230.59 140.945 230.559 140.527 230.365C146.273 226.146 144.588 202.135 143.197 198.967C141.793 195.772 146.736 190.367 149.323 179.58C151.91 168.792 140.325 164.496 140.325 164.496C140.965 164.24 141.592 163.952 142.202 163.633C148.029 160.579 157.264 167.752 156.23 175.551C156.23 175.551 156.911 188.317 150.492 197.283Z" fill="url(#paint8_linear_2615_67)"/>
<path opacity="0.3" d="M127.883 203.212L126.372 203.114C119.281 204.339 120.944 231.494 114.326 228.653C113.937 228.479 113.586 228.228 113.296 227.917C118.732 230.47 119.602 208.786 120.748 205.266C121.893 201.745 127.883 203.212 127.883 203.212Z" fill="url(#paint9_linear_2615_67)"/>
<path d="M39.5721 174.888L33.8845 174.678C31.9116 174.606 30.211 176.024 30.0938 177.849L29.5551 186.236C29.438 188.058 30.9469 189.575 32.9244 189.625L38.6162 189.77C40.5672 189.817 42.2392 188.396 42.3549 186.595L42.8885 178.288C43.0047 176.479 41.5217 174.959 39.5721 174.888Z" fill="url(#paint10_linear_2615_67)"/>
<path d="M38.4034 177.871L34.6686 177.742C33.5949 177.706 32.6718 178.48 32.608 179.473L32.2674 184.775C32.2037 185.766 33.0239 186.594 34.0981 186.624L37.8345 186.727C38.9009 186.757 39.8156 185.981 39.8788 184.996L40.2175 179.723C40.281 178.735 39.4694 177.906 38.4034 177.871Z" fill="url(#paint11_linear_2615_67)"/>
<path d="M86.1112 176.581L80.8101 176.388C78.9718 176.321 77.3865 177.693 77.2735 179.451L76.7535 187.547C76.6406 189.305 78.0438 190.768 79.8834 190.815L85.1883 190.949C87.0077 190.996 88.5698 189.62 88.6818 187.877L89.197 179.856C89.309 178.113 87.9294 176.647 86.1112 176.581Z" fill="url(#paint12_linear_2615_67)"/>
<path d="M85.0154 179.462L81.5374 179.343C80.536 179.309 79.6738 180.057 79.6123 181.015L79.2833 186.136C79.2218 187.094 79.9846 187.892 80.9865 187.919L84.466 188.016C85.4608 188.043 86.3153 187.293 86.3764 186.341L86.7034 181.251C86.7655 180.295 86.0098 179.496 85.0154 179.462Z" fill="url(#paint13_linear_2615_67)"/>
<path d="M127.646 178.093L122.678 177.912C120.956 177.85 119.468 179.181 119.358 180.881L118.855 188.717C118.828 189.118 118.883 189.521 119.017 189.9C119.151 190.28 119.361 190.628 119.635 190.924C119.909 191.22 120.241 191.457 120.61 191.621C120.979 191.785 121.377 191.873 121.781 191.878L126.753 192.004C127.579 192.02 128.379 191.721 128.989 191.167C129.6 190.613 129.973 189.847 130.034 189.027L130.533 181.26C130.56 180.862 130.506 180.462 130.375 180.085C130.243 179.708 130.036 179.361 129.767 179.065C129.497 178.769 129.17 178.531 128.806 178.364C128.442 178.197 128.047 178.105 127.646 178.093V178.093Z" fill="url(#paint14_linear_2615_67)"/>
<path d="M126.613 180.883L123.354 180.771C122.901 180.757 122.46 180.918 122.123 181.22C121.786 181.522 121.58 181.941 121.547 182.392L121.229 187.345C121.214 187.564 121.243 187.783 121.316 187.99C121.389 188.197 121.504 188.387 121.653 188.548C121.802 188.71 121.982 188.839 122.183 188.929C122.384 189.019 122.601 189.067 122.821 189.071L126.082 189.161C126.533 189.171 126.971 189.008 127.305 188.706C127.638 188.404 127.843 187.985 127.876 187.537L128.192 182.61C128.207 182.392 128.178 182.174 128.106 181.968C128.034 181.761 127.921 181.572 127.773 181.411C127.626 181.249 127.447 181.119 127.247 181.029C127.048 180.938 126.832 180.888 126.613 180.883Z" fill="url(#paint15_linear_2615_67)"/>
<path d="M38.6818 174.954L32.9943 174.744C31.0221 174.672 29.3207 176.09 29.2035 177.915L28.6648 186.302C28.5478 188.124 30.0575 189.641 32.0341 189.692L37.7259 189.836C39.6778 189.884 41.3497 188.462 41.4654 186.661L41.999 178.354C42.1152 176.545 40.6322 175.025 38.6818 174.954Z" fill="#7D97F4"/>
<path d="M85.2218 176.648L79.9199 176.455C78.0823 176.388 76.4962 177.759 76.3833 179.518L75.8633 187.613C75.7503 189.372 77.1543 190.835 78.9932 190.881L84.2988 191.016C86.1182 191.062 87.6796 189.687 87.7916 187.944L88.3068 179.923C88.4211 178.18 87.0399 176.713 85.2218 176.648Z" fill="#7D97F4"/>
<path d="M126.756 178.159L121.788 177.978C120.066 177.916 118.577 179.247 118.468 180.947L117.965 188.783C117.937 189.184 117.992 189.587 118.126 189.966C118.261 190.346 118.471 190.694 118.745 190.99C119.019 191.286 119.35 191.523 119.719 191.687C120.088 191.851 120.487 191.939 120.891 191.944L125.863 192.071C126.689 192.087 127.489 191.787 128.099 191.233C128.71 190.679 129.083 189.914 129.143 189.094L129.642 181.326C129.67 180.928 129.616 180.528 129.485 180.151C129.353 179.774 129.146 179.427 128.877 179.131C128.607 178.835 128.28 178.597 127.916 178.43C127.552 178.263 127.157 178.171 126.756 178.159V178.159Z" fill="#7D97F4"/>
<path d="M35.3206 183.276L35.3873 181.351C35.8627 181.367 83.3761 183.031 123.845 184.083L123.8 186.009C83.318 184.956 35.796 183.292 35.3206 183.276Z" fill="#7D97F4"/>
<path d="M37.5164 177.937L33.7816 177.809C32.7071 177.773 31.7847 178.547 31.721 179.539L31.3804 184.841C31.3167 185.833 32.1369 186.661 33.2111 186.69L36.9475 186.794C38.0139 186.824 38.9293 186.047 38.9926 185.062L39.3313 179.789C39.3916 178.802 38.5793 177.973 37.5164 177.937Z" fill="url(#paint16_linear_2615_67)"/>
<path d="M84.1237 179.528L80.6448 179.41C79.6442 179.376 78.782 180.124 78.7205 181.081L78.3916 186.202C78.33 187.16 79.0928 187.959 80.0939 187.986L83.5742 188.082C84.5683 188.109 85.4227 187.359 85.4839 186.407L85.8109 181.317C85.8746 180.362 85.1196 179.563 84.1237 179.528Z" fill="url(#paint17_linear_2615_67)"/>
<path d="M125.724 180.949L122.464 180.838C122.011 180.824 121.57 180.984 121.233 181.286C120.896 181.588 120.69 182.008 120.657 182.458L120.338 187.412C120.323 187.63 120.353 187.85 120.426 188.057C120.499 188.263 120.614 188.453 120.763 188.615C120.912 188.776 121.092 188.906 121.293 188.995C121.494 189.085 121.711 189.133 121.931 189.137L125.192 189.227C125.643 189.237 126.081 189.074 126.415 188.772C126.748 188.47 126.953 188.052 126.985 187.604L127.302 182.676C127.317 182.458 127.288 182.24 127.216 182.034C127.144 181.828 127.031 181.639 126.883 181.477C126.736 181.316 126.557 181.186 126.358 181.095C126.158 181.005 125.943 180.955 125.724 180.949V180.949Z" fill="url(#paint18_linear_2615_67)"/>
<path d="M175.268 111.767C175.285 111.781 175.298 111.799 175.308 111.819L175.493 111.841C175.511 111.87 175.708 111.934 175.704 111.989L175.522 112.035C175.517 112.095 175.428 112.164 175.439 112.249L175.395 112.281C175.507 113.523 176.375 116.965 177.272 121.404C177.282 121.44 177.275 121.48 177.284 121.516C179.3 131.474 182.156 146.448 182.836 153.331C182.836 153.331 184.891 154.553 188.175 155.334L188.184 155.335C192.908 156.755 200.086 158.281 206.971 157.043C206.971 157.043 212.891 127.861 210.484 101.987C210.484 101.987 199.179 98.2295 186.798 96.4808C186.734 96.4758 186.653 96.6892 186.59 96.68C185.591 96.5459 184.568 96.6573 183.561 96.5789L182.409 96.4893C181.893 96.4492 180.948 96.5574 179.825 96.9303C179.792 96.9396 179.737 96.8217 179.736 96.8392C179.736 96.8073 179.734 96.7754 179.73 96.7437C179.73 96.7437 179.537 96.8128 179.45 96.8422C179.321 96.8844 179.19 96.9263 179.053 96.9796C179.024 96.9928 178.995 97.004 178.965 97.0132C178.952 97.0206 178.936 97.0211 178.924 97.0285C178.836 97.0655 178.749 97.0991 178.65 97.1385C178.631 97.1437 178.613 97.1502 178.596 97.1578C178.488 97.2016 178.38 97.2487 178.267 97.2963C178.251 97.3026 178.334 97.3175 178.317 97.328C178.189 97.382 178.023 97.4372 177.89 97.495C177.757 97.5529 177.677 97.6022 177.663 97.6693L177.655 97.5643C177.593 97.5915 177.526 97.6225 177.463 97.6537C177.457 97.6552 177.452 97.6573 177.447 97.66C176.727 98.0022 176.039 98.4068 175.39 98.8692C175.39 98.8692 175.389 98.8775 175.381 98.8811C175.372 98.8846 175.358 98.9071 175.35 98.9182C172.199 103.313 170.318 110.761 175.268 111.767Z" fill="url(#paint19_linear_2615_67)"/>
<path d="M145.557 117.139C158.201 116.794 164.835 107.636 169.972 101.884C176.753 94.2895 183.439 96.2126 183.439 96.2126L177.894 113.706C167.442 127.739 154.079 127.404 145.264 125.022C144.693 122.411 144.794 119.699 145.557 117.139V117.139Z" fill="#7D97F4"/>
<path d="M126.938 112.896L131.414 114.359C136.844 116.459 141.504 117.248 145.557 117.142C144.794 119.702 144.693 122.413 145.264 125.023C139.653 123.506 135.884 121.16 135.884 121.16C125.648 117.306 126.938 112.896 126.938 112.896Z" fill="#7D97F4"/>
<path d="M115.939 120.757C115.992 120.304 116.146 119.868 116.391 119.482C116.637 119.096 116.966 118.769 117.354 118.527L125.045 113.74C125.045 113.74 124.98 112.659 122.975 112.273C120.97 111.888 121.032 109.718 121.032 109.718C121.032 109.718 123.804 110.427 127.888 111.607C130.224 112.282 131.766 113.929 132.653 115.222L131.022 118.393C126.189 120.827 121.074 122.036 115.749 122.354L115.939 120.757Z" fill="url(#paint20_linear_2615_67)"/>
<path d="M182.32 96.0284C182.364 96.0318 182.404 96.035 182.444 96.0381C182.456 96.039 182.464 96.0396 182.477 96.0322L182.32 96.0284Z" fill="url(#paint21_linear_2615_67)"/>
<path d="M179.809 95.6973L179.824 95.7055L179.825 95.6906C179.823 95.6928 179.821 95.6945 179.818 95.6956C179.815 95.6968 179.812 95.6973 179.809 95.6973V95.6973Z" fill="url(#paint22_linear_2615_67)"/>
<path d="M176.35 235.222C176.35 235.222 176.716 238.941 176.752 242.597C176.755 242.936 176.688 243.271 176.556 243.584C176.425 243.896 176.231 244.179 175.987 244.415C175.742 244.651 175.452 244.835 175.134 244.956C174.817 245.077 174.477 245.133 174.137 245.121C169.263 244.943 158.841 244.526 155.125 244.07C154.995 244.054 154.871 244.007 154.764 243.933C154.656 243.86 154.567 243.762 154.505 243.647C154.443 243.532 154.41 243.405 154.408 243.275C154.405 243.144 154.435 243.016 154.492 242.899V242.899C154.7 242.478 155.063 242.153 155.505 241.991L173.281 235.474L176.35 235.222Z" fill="url(#paint23_linear_2615_67)"/>
<path d="M177.051 233.106L176.186 237.453C176.186 237.453 173.072 238.612 171.14 236.883L172.766 232.091L177.051 233.106Z" fill="url(#paint24_linear_2615_67)"/>
<path d="M183.077 150.592C183.214 151.755 179.84 207.863 171.869 232.504C171.804 232.698 171.812 232.909 171.89 233.098C171.969 233.287 172.113 233.442 172.296 233.534C173.191 233.982 174.956 234.667 177.119 234.907C177.445 234.943 177.773 234.87 178.053 234.7C178.333 234.53 178.548 234.272 178.664 233.967C180.837 228.275 191.35 199.728 194.596 171.929C198.221 140.866 194.678 170.868 194.678 170.868L195.472 151.554L183.077 150.592Z" fill="url(#paint25_linear_2615_67)"/>
<path d="M195.946 238.672C195.946 238.672 196.838 240.605 197.458 245.607C197.486 245.82 197.468 246.036 197.405 246.241C197.343 246.446 197.239 246.637 197.098 246.799C196.957 246.961 196.784 247.093 196.589 247.184C196.394 247.275 196.182 247.325 195.966 247.329C194.351 247.362 191.865 247.371 189.889 247.204C189.673 247.186 189.464 247.124 189.275 247.02C189.086 246.917 188.921 246.775 188.791 246.604C188.66 246.432 188.568 246.236 188.519 246.026C188.47 245.817 188.467 245.6 188.508 245.389C188.867 243.61 189.779 240.716 192.067 238.583L195.946 238.672Z" fill="url(#paint26_linear_2615_67)"/>
<path d="M197.295 233.101L195.557 239.641C195.557 239.641 194.279 240.441 191.939 239.606L193.078 232.512L197.295 233.101Z" fill="url(#paint27_linear_2615_67)"/>
<path d="M206.76 154.164C209.38 184.109 200.006 227.147 197.324 235.504C197.244 235.755 197.092 235.976 196.887 236.141C196.681 236.305 196.431 236.406 196.168 236.429C195.254 236.508 193.761 236.514 192.331 235.976C192.09 235.886 191.884 235.722 191.742 235.509C191.6 235.295 191.529 235.043 191.539 234.787C191.803 227.883 195.58 185.66 192.293 168.602C192.126 167.739 191.664 166.959 190.986 166.396L182.576 159.406L182.686 149.173L206.76 154.164Z" fill="url(#paint28_linear_2615_67)"/>
<path d="M203.718 115.751L210.481 101.978C210.481 101.978 223.532 112.366 224.879 124.354C222.258 124.343 217.471 124.648 212.654 126.618C212.07 120.959 203.718 115.751 203.718 115.751Z" fill="#91B3FA"/>
<path d="M195.626 84.9544L199.266 98.8271C199.296 98.9382 199.285 99.0561 199.236 99.16C199.187 99.264 199.102 99.3473 198.998 99.3953C197.664 99.9993 192.897 101.676 187.615 97.7387C187.343 97.5377 187.118 97.2794 186.957 96.9823C186.795 96.6851 186.702 96.3563 186.683 96.0192L186.073 84.2102L195.626 84.9544Z" fill="url(#paint29_linear_2615_67)"/>
<path d="M203.423 99.8985L198.192 94.7291L188.231 114.433L188.045 195.797L207.074 197.849C207.14 197.857 207.208 197.85 207.272 197.831C207.336 197.811 207.395 197.779 207.446 197.735C207.497 197.692 207.539 197.639 207.568 197.579C207.597 197.519 207.614 197.453 207.617 197.387L211.008 119.361C211.008 119.361 212.243 102.542 210.481 101.979C208.719 101.416 203.423 99.8985 203.423 99.8985Z" fill="#91B3FA"/>
<path d="M175.677 111.855L175.702 111.989L175.52 112.034L175.436 112.248L175.824 112.315L176.528 128.527L176.528 128.535L177.542 196.031C177.547 196.168 177.37 196.27 177.468 196.362C177.566 196.453 177.583 196.487 177.713 196.477L188.097 195.796L188.202 155.335L188.189 155.275L188.394 113.381L186.951 96.4378L186.952 96.4303L186.648 93.8163L183.642 96.0229L183.579 96.018L182.771 95.9989L182.433 95.9886C181.911 96.0843 179.747 96.7053 179.747 96.7053C179.747 96.7053 178.987 96.9744 178.623 97.1143C178.608 97.1201 178.594 97.1269 178.58 97.1345C178.472 97.1783 178.368 97.2266 178.256 97.2735C178.24 97.2806 178.332 97.2954 178.315 97.3067C178.09 97.4087 177.882 97.5254 177.871 97.6642L177.87 97.6718L175.716 111.777L175.712 111.825L175.677 111.855Z" fill="#7D97F4"/>
<path d="M185.06 114.02L184.906 116L177.585 114.988L177.756 112.788L185.06 114.02Z" fill="url(#paint30_linear_2615_67)"/>
<path d="M188.319 119.153C188.351 119.155 188.384 119.15 188.414 119.137L195.118 116.197C195.147 116.185 195.172 116.166 195.192 116.141C195.212 116.117 195.226 116.089 195.233 116.059L196.575 110.219L198.955 109.984C198.991 109.98 199.027 109.967 199.056 109.945C199.085 109.923 199.108 109.893 199.122 109.859L202.23 102.022C202.25 101.972 202.249 101.917 202.227 101.869C202.206 101.82 202.167 101.782 202.117 101.762C202.068 101.743 202.012 101.744 201.964 101.765C201.915 101.786 201.876 101.825 201.857 101.875L198.794 109.597L196.392 109.831C196.35 109.835 196.311 109.852 196.279 109.88C196.247 109.908 196.225 109.945 196.216 109.986L194.865 115.868L188.253 118.769C188.212 118.787 188.179 118.818 188.158 118.857C188.137 118.896 188.13 118.941 188.137 118.985C188.145 119.029 188.167 119.069 188.2 119.098C188.232 119.128 188.274 119.147 188.319 119.15L188.319 119.153Z" fill="url(#paint31_linear_2615_67)"/>
<path d="M186.94 117.056C186.967 117.058 186.993 117.053 187.017 117.042C187.034 117.033 187.05 117.022 187.064 117.007C187.077 116.993 187.087 116.976 187.094 116.957C187.1 116.939 187.103 116.919 187.102 116.899C187.101 116.88 187.096 116.861 187.088 116.843L184.169 110.687L184.985 107.399C184.993 107.369 184.991 107.337 184.979 107.308C184.967 107.279 184.947 107.255 184.92 107.238L182.315 105.587L183.751 96.0602C183.757 96.0209 183.747 95.9809 183.723 95.9489C183.699 95.9169 183.664 95.8956 183.625 95.8897C183.585 95.8837 183.545 95.8936 183.513 95.9171C183.481 95.9406 183.459 95.9759 183.453 96.0152L182.003 105.638C181.999 105.667 182.003 105.697 182.015 105.723C182.027 105.75 182.047 105.772 182.071 105.787L184.667 107.433L183.864 110.667C183.856 110.7 183.86 110.735 183.875 110.766L186.816 116.97C186.827 116.994 186.845 117.014 186.867 117.03C186.888 117.045 186.914 117.054 186.94 117.056V117.056Z" fill="url(#paint32_linear_2615_67)"/>
<path d="M190.654 127.772C190.654 127.772 205.441 137.675 211.24 130.653C212.444 129.195 212.824 127.682 212.669 126.2C217.487 124.23 222.276 123.925 224.893 123.937C225.299 127.551 224.643 131.311 222.244 134.975C211.806 150.91 188.312 131.409 188.312 131.409L190.654 127.772Z" fill="#91B3FA"/>
<path d="M191.656 138.924L185.498 108.926C185.464 108.759 185.382 108.607 185.261 108.487C185.14 108.368 184.986 108.286 184.819 108.253C183.304 107.956 178.911 107.113 173.827 106.284C167.705 105.286 160.58 104.308 156.276 104.329C156.134 104.329 155.995 104.364 155.871 104.43C155.746 104.496 155.639 104.591 155.56 104.707C155.481 104.824 155.432 104.958 155.417 105.098C155.402 105.238 155.422 105.379 155.474 105.509C157.525 110.596 165.981 131.298 170.482 138.214C170.555 138.327 170.653 138.421 170.77 138.49C170.886 138.558 171.017 138.598 171.151 138.608L190.747 139.951C190.879 139.96 191.012 139.939 191.135 139.889C191.259 139.838 191.368 139.761 191.456 139.661C191.544 139.562 191.608 139.444 191.643 139.316C191.677 139.188 191.682 139.054 191.656 138.924V138.924Z" fill="url(#paint33_linear_2615_67)"/>
<path d="M173.15 103.672L167.109 102.181C167.035 102.162 166.958 102.163 166.885 102.183C166.812 102.204 166.745 102.242 166.691 102.295C166.638 102.349 166.599 102.415 166.579 102.488C166.558 102.56 166.557 102.637 166.575 102.711L167.039 104.585C167.059 104.665 167.101 104.738 167.16 104.795C167.22 104.853 167.294 104.892 167.375 104.909L173.203 106.151C173.273 106.165 173.345 106.163 173.414 106.144C173.483 106.125 173.546 106.089 173.597 106.041C173.649 105.992 173.688 105.932 173.712 105.865C173.735 105.797 173.741 105.726 173.731 105.656L173.48 104.031C173.467 103.946 173.428 103.866 173.37 103.802C173.311 103.738 173.235 103.692 173.15 103.672V103.672Z" fill="url(#paint34_linear_2615_67)"/>
<path d="M177.331 109.185L177.03 106.532C177.015 106.402 176.959 106.281 176.87 106.186C176.78 106.09 176.662 106.026 176.534 106.003L164.27 103.792C164.174 103.775 164.076 103.781 163.983 103.809C163.89 103.838 163.805 103.888 163.735 103.956C163.666 104.024 163.614 104.107 163.583 104.199C163.553 104.291 163.545 104.389 163.56 104.484L164.093 107.803C164.114 107.932 164.176 108.051 164.27 108.143C164.365 108.234 164.487 108.292 164.617 108.308L176.649 109.854C176.74 109.866 176.834 109.856 176.921 109.827C177.008 109.798 177.088 109.749 177.154 109.685C177.219 109.62 177.269 109.542 177.3 109.455C177.331 109.369 177.341 109.276 177.331 109.185V109.185Z" fill="url(#paint35_linear_2615_67)"/>
<path d="M190.168 131.676C190.168 131.676 191.719 126.955 191.377 125.211C191.035 123.467 190.287 121.2 187.189 121.449C184.09 121.699 180.375 122.702 180.375 122.702C180.375 122.702 180.384 124.941 182.768 124.403L181.237 125.403C181.237 125.403 181.306 127.2 183.346 126.401L181.887 127.771C181.887 127.771 182.618 129.299 184.137 128.473C185.656 127.647 186.02 131.937 190.168 131.676Z" fill="url(#paint36_linear_2615_67)"/>
<path d="M204.875 133.225C206.312 133.337 207.648 133.228 208.694 132.757C208.719 132.747 208.741 132.732 208.76 132.713C208.779 132.694 208.794 132.671 208.804 132.647C208.814 132.622 208.818 132.595 208.818 132.568C208.817 132.541 208.811 132.515 208.8 132.491C208.789 132.466 208.773 132.444 208.753 132.426C208.733 132.408 208.71 132.394 208.685 132.385C208.66 132.376 208.633 132.372 208.606 132.374C208.579 132.375 208.553 132.382 208.529 132.394C204.235 134.325 194.36 129.678 194.26 129.631C194.233 129.618 192.31 128.781 191.71 127.353C191.688 127.307 191.648 127.271 191.6 127.253C191.552 127.235 191.499 127.235 191.451 127.255C191.404 127.275 191.366 127.312 191.345 127.359C191.325 127.406 191.323 127.459 191.34 127.507C192.003 129.085 194.01 129.958 194.095 129.994C194.407 130.141 200.184 132.86 204.875 133.225Z" fill="url(#paint37_linear_2615_67)"/>
<path d="M209.866 141.244C209.973 141.252 210.061 141.259 210.074 141.151C210.087 141.042 210.002 140.984 209.894 140.968C198.179 139.652 191.908 133.801 191.846 133.741C191.826 133.724 191.803 133.71 191.778 133.702C191.753 133.693 191.727 133.689 191.7 133.691C191.674 133.692 191.648 133.699 191.624 133.71C191.6 133.722 191.579 133.738 191.562 133.758C191.485 133.836 191.494 133.885 191.574 133.961C191.637 134.022 197.979 140.316 209.862 141.24L209.866 141.244Z" fill="url(#paint38_linear_2615_67)"/>
<path d="M184.232 71.1859C184.232 71.1859 181.331 79.2022 181.365 83.3084C181.4 87.4145 180.691 90.1288 185.498 90.6494C190.306 91.17 194.158 88.5563 196.062 84.3401C196.062 84.3401 199.052 77.8403 198.121 75.3165C197.19 72.7926 184.232 71.1859 184.232 71.1859Z" fill="url(#paint39_linear_2615_67)"/>
<path d="M203.403 73.1356C202.426 72.42 201.741 72.5855 201.325 72.8779C201.273 72.9148 201.212 72.9356 201.148 72.9377C201.084 72.9397 201.021 72.923 200.967 72.8897C200.966 72.7684 200.839 64.3337 189.255 64.9142C188.667 64.9438 188.083 64.7982 187.577 64.4962C187.072 64.1941 186.668 63.7492 186.417 63.2181C185.246 60.7353 182.946 57.0403 180.737 60.3036C177.596 64.9461 176.281 71.2555 184.005 73.1812C184.462 73.2959 184.924 73.3942 185.39 73.4809C188.558 74.5252 192.219 75.0617 193.556 75.51C195.79 76.2586 193.639 81.3998 193.639 81.3998L194.24 81.3623L195.521 81.2803C195.707 81.2687 195.87 81.4892 195.871 81.6753L195.885 85.3026C195.884 85.3804 195.911 85.4559 195.959 85.5169C196.008 85.5778 196.076 85.6206 196.152 85.6381C196.726 85.7459 198.233 85.806 200.675 84.2986C203.061 82.8247 202.045 81.9032 201.376 81.5297C201.333 81.5041 201.297 81.4688 201.271 81.4268C201.244 81.3847 201.228 81.3371 201.223 81.2876C201.218 81.2381 201.225 81.1883 201.243 81.142C201.261 81.0957 201.29 81.0542 201.327 81.021C204.671 77.9183 205.101 74.3837 203.403 73.1356Z" fill="url(#paint40_linear_2615_67)"/>
<path d="M194.15 82.2718C194.15 82.2718 195.126 77.2067 197.461 78.4597C199.796 79.7127 196.661 84.12 194.869 84.4182L194.15 82.2718Z" fill="url(#paint41_linear_2615_67)"/>
<path d="M182.093 71.4822C182.124 71.4802 182.154 71.4692 182.179 71.4504C182.204 71.4316 182.223 71.4059 182.233 71.3766C182.244 71.3472 182.245 71.3155 182.238 71.2852C182.23 71.2549 182.214 71.2275 182.191 71.2063C180.643 69.7798 179.855 68.2087 179.849 66.5369C179.834 63.6282 182.21 61.3666 182.234 61.3441C182.262 61.3146 182.278 61.2754 182.278 61.2346C182.278 61.1937 182.263 61.1544 182.235 61.1248C182.207 61.0951 182.168 61.0772 182.127 61.0749C182.086 61.0726 182.046 61.0861 182.015 61.1124C181.912 61.208 179.516 63.4872 179.529 66.5355C179.536 68.3033 180.362 69.9506 181.975 71.4386C181.991 71.4534 182.009 71.4649 182.03 71.4724C182.05 71.4799 182.071 71.4833 182.093 71.4822V71.4822Z" fill="#91B3FA"/>
</g>
<defs>
<linearGradient id="paint0_linear_2615_67" x1="109.06" y1="174.808" x2="53.8884" y2="-15.8326" gradientUnits="userSpaceOnUse">
<stop stop-color="#E38DDD"/>
<stop offset="1" stop-color="#9571F6"/>
</linearGradient>
<linearGradient id="paint1_linear_2615_67" x1="43147.1" y1="19715.9" x2="24123" y2="26472.8" gradientUnits="userSpaceOnUse">
<stop stop-color="#09005D"/>
<stop offset="1" stop-color="#1A0F91"/>
</linearGradient>
<linearGradient id="paint2_linear_2615_67" x1="77199.6" y1="53847.2" x2="79836.4" y2="70932.7" gradientUnits="userSpaceOnUse">
<stop stop-color="#09005D"/>
<stop offset="1" stop-color="#1A0F91"/>
</linearGradient>
<linearGradient id="paint3_linear_2615_67" x1="148107" y1="5332.63" x2="147086" y2="14394.7" gradientUnits="userSpaceOnUse">
<stop stop-color="#09005D"/>
<stop offset="1" stop-color="#1A0F91"/>
</linearGradient>
<linearGradient id="paint4_linear_2615_67" x1="48.021" y1="190.599" x2="64.7402" y2="191.672" gradientUnits="userSpaceOnUse">
<stop stop-color="#53D8FF"/>
<stop offset="1" stop-color="#3840F7"/>
</linearGradient>
<linearGradient id="paint5_linear_2615_67" x1="9899.9" y1="76430.1" x2="12058.5" y2="76568.7" gradientUnits="userSpaceOnUse">
<stop stop-color="#53D8FF"/>
<stop offset="1" stop-color="#3840F7"/>
</linearGradient>
<linearGradient id="paint6_linear_2615_67" x1="22477.1" y1="177482" x2="26076.5" y2="177713" gradientUnits="userSpaceOnUse">
<stop stop-color="#53D8FF"/>
<stop offset="1" stop-color="#3840F7"/>
</linearGradient>
<linearGradient id="paint7_linear_2615_67" x1="17439" y1="77347.9" x2="19597.3" y2="77486.5" gradientUnits="userSpaceOnUse">
<stop stop-color="#53D8FF"/>
<stop offset="1" stop-color="#3840F7"/>
</linearGradient>
<linearGradient id="paint8_linear_2615_67" x1="32310.7" y1="177007" x2="35910.4" y2="177239" gradientUnits="userSpaceOnUse">
<stop stop-color="#53D8FF"/>
<stop offset="1" stop-color="#3840F7"/>
</linearGradient>
<linearGradient id="paint9_linear_2615_67" x1="25035.7" y1="77402.4" x2="27194" y2="77541" gradientUnits="userSpaceOnUse">
<stop stop-color="#53D8FF"/>
<stop offset="1" stop-color="#3840F7"/>
</linearGradient>
<linearGradient id="paint10_linear_2615_67" x1="48.6342" y1="176.002" x2="28.8232" y2="186.036" gradientUnits="userSpaceOnUse">
<stop stop-color="#4F52FF"/>
<stop offset="1" stop-color="#4042E2"/>
</linearGradient>
<linearGradient id="paint11_linear_2615_67" x1="9173.7" y1="22130" x2="8049.07" y2="22962.1" gradientUnits="userSpaceOnUse">
<stop stop-color="#53D8FF"/>
<stop offset="1" stop-color="#3840F7"/>
</linearGradient>
<linearGradient id="paint12_linear_2615_67" x1="21836.9" y1="36564.7" x2="19030" y2="37414.2" gradientUnits="userSpaceOnUse">
<stop stop-color="#4F52FF"/>
<stop offset="1" stop-color="#4042E2"/>
</linearGradient>
<linearGradient id="paint13_linear_2615_67" x1="12772.5" y1="21490.6" x2="11749.9" y2="22220.2" gradientUnits="userSpaceOnUse">
<stop stop-color="#53D8FF"/>
<stop offset="1" stop-color="#3840F7"/>
</linearGradient>
<linearGradient id="paint14_linear_2615_67" x1="27128.8" y1="35428" x2="25012.8" y2="35876.8" gradientUnits="userSpaceOnUse">
<stop stop-color="#4F52FF"/>
<stop offset="1" stop-color="#4042E2"/>
</linearGradient>
<linearGradient id="paint15_linear_2615_67" x1="15506.7" y1="20887.1" x2="14570.9" y2="21533.2" gradientUnits="userSpaceOnUse">
<stop stop-color="#53D8FF"/>
<stop offset="1" stop-color="#3840F7"/>
</linearGradient>
<linearGradient id="paint16_linear_2615_67" x1="8865.72" y1="19915.4" x2="7861.89" y2="25052.6" gradientUnits="userSpaceOnUse">
<stop stop-color="#4F52FF"/>
<stop offset="1" stop-color="#4042E2"/>
</linearGradient>
<linearGradient id="paint17_linear_2615_67" x1="12954.9" y1="17950.6" x2="10525.4" y2="26813.1" gradientUnits="userSpaceOnUse">
<stop stop-color="#4F52FF"/>
<stop offset="1" stop-color="#4042E2"/>
</linearGradient>
<linearGradient id="paint18_linear_2615_67" x1="15699.1" y1="19155.8" x2="12491.3" y2="25728" gradientUnits="userSpaceOnUse">
<stop stop-color="#4F52FF"/>
<stop offset="1" stop-color="#4042E2"/>
</linearGradient>
<linearGradient id="paint19_linear_2615_67" x1="153119" y1="120066" x2="134271" y2="118599" gradientUnits="userSpaceOnUse">
<stop stop-color="#09005D"/>
<stop offset="1" stop-color="#1A0F91"/>
</linearGradient>
<linearGradient id="paint20_linear_2615_67" x1="196.552" y1="22.0701" x2="141.32" y2="94.7471" gradientUnits="userSpaceOnUse">
<stop stop-color="#FEBBBA"/>
<stop offset="1" stop-color="#FDACA9"/>
</linearGradient>
<linearGradient id="paint21_linear_2615_67" x1="219.899" y1="111.145" x2="219.608" y2="111.123" gradientUnits="userSpaceOnUse">
<stop stop-color="#09005D"/>
<stop offset="1" stop-color="#1A0F91"/>
</linearGradient>
<linearGradient id="paint22_linear_2615_67" x1="123.566" y1="112.911" x2="123.562" y2="112.916" gradientUnits="userSpaceOnUse">
<stop stop-color="#53EAC9"/>
<stop offset="1" stop-color="#45AED8"/>
</linearGradient>
<linearGradient id="paint23_linear_2615_67" x1="75265" y1="38154.5" x2="79983.4" y2="51832.2" gradientUnits="userSpaceOnUse">
<stop stop-color="#09005D"/>
<stop offset="1" stop-color="#1A0F91"/>
</linearGradient>
<linearGradient id="paint24_linear_2615_67" x1="19297.7" y1="19316.1" x2="18926.7" y2="19287.2" gradientUnits="userSpaceOnUse">
<stop stop-color="#FEBBBA"/>
<stop offset="1" stop-color="#FF928E"/>
</linearGradient>
<linearGradient id="paint25_linear_2615_67" x1="49667.7" y1="184006" x2="79594.8" y2="195487" gradientUnits="userSpaceOnUse">
<stop stop-color="#09005D"/>
<stop offset="1" stop-color="#1A0F91"/>
</linearGradient>
<linearGradient id="paint26_linear_2615_67" x1="30652.7" y1="28619.4" x2="36779" y2="36425.6" gradientUnits="userSpaceOnUse">
<stop stop-color="#09005D"/>
<stop offset="1" stop-color="#1A0F91"/>
</linearGradient>
<linearGradient id="paint27_linear_2615_67" x1="17139.7" y1="24554.4" x2="16863.2" y2="24532.8" gradientUnits="userSpaceOnUse">
<stop stop-color="#FEBBBA"/>
<stop offset="1" stop-color="#FF928E"/>
</linearGradient>
<linearGradient id="paint28_linear_2615_67" x1="79768.2" y1="182442" x2="118869" y2="202309" gradientUnits="userSpaceOnUse">
<stop stop-color="#09005D"/>
<stop offset="1" stop-color="#1A0F91"/>
</linearGradient>
<linearGradient id="paint29_linear_2615_67" x1="56004.2" y1="27903.5" x2="54861" y2="27224.9" gradientUnits="userSpaceOnUse">
<stop stop-color="#FEBBBA"/>
<stop offset="0.90625" stop-color="#FFB3B0"/>
</linearGradient>
<linearGradient id="paint30_linear_2615_67" x1="185.755" y1="118.231" x2="161.308" y2="97.4861" gradientUnits="userSpaceOnUse">
<stop stop-color="#9CFFFB"/>
<stop offset="1" stop-color="#9BFFFA"/>
</linearGradient>
<linearGradient id="paint31_linear_2615_67" x1="46912.5" y1="33835.6" x2="46316.6" y2="33478.5" gradientUnits="userSpaceOnUse">
<stop stop-color="#DAE3FE"/>
<stop offset="1" stop-color="#E9EFFD"/>
</linearGradient>
<linearGradient id="paint32_linear_2615_67" x1="19552.8" y1="34338.7" x2="19132.8" y2="34306" gradientUnits="userSpaceOnUse">
<stop stop-color="#DAE3FE"/>
<stop offset="1" stop-color="#E9EFFD"/>
</linearGradient>
<linearGradient id="paint33_linear_2615_67" x1="66204.1" y1="83824.9" x2="74372.1" y2="120244" gradientUnits="userSpaceOnUse">
<stop stop-color="#FFC444"/>
<stop offset="1" stop-color="#F36F56"/>
</linearGradient>
<linearGradient id="paint34_linear_2615_67" x1="18706.3" y1="5571.61" x2="18660.8" y2="6155.9" gradientUnits="userSpaceOnUse">
<stop stop-color="#09005D"/>
<stop offset="1" stop-color="#1A0F91"/>
</linearGradient>
<linearGradient id="paint35_linear_2615_67" x1="36200.5" y1="7142.58" x2="36035.1" y2="9030.13" gradientUnits="userSpaceOnUse">
<stop stop-color="#09005D"/>
<stop offset="1" stop-color="#1A0F91"/>
</linearGradient>
<linearGradient id="paint36_linear_2615_67" x1="41370.6" y1="21553.2" x2="39866" y2="21436.1" gradientUnits="userSpaceOnUse">
<stop stop-color="#FEBBBA"/>
<stop offset="1" stop-color="#FF9D9A"/>
</linearGradient>
<linearGradient id="paint37_linear_2615_67" x1="70920.7" y1="14714.8" x2="67158.5" y2="14422" gradientUnits="userSpaceOnUse">
<stop stop-color="#DAE3FE"/>
<stop offset="1" stop-color="#E9EFFD"/>
</linearGradient>
<linearGradient id="paint38_linear_2615_67" x1="76146.2" y1="17833.6" x2="71842.4" y2="17498.6" gradientUnits="userSpaceOnUse">
<stop stop-color="#DAE3FE"/>
<stop offset="1" stop-color="#E9EFFD"/>
</linearGradient>
<linearGradient id="paint39_linear_2615_67" x1="128594" y1="26879.9" x2="133000" y2="29364.6" gradientUnits="userSpaceOnUse">
<stop stop-color="#FEBBBA"/>
<stop offset="1" stop-color="#FF928E"/>
</linearGradient>
<linearGradient id="paint40_linear_2615_67" x1="124651" y1="31759.9" x2="136216" y2="45416.3" gradientUnits="userSpaceOnUse">
<stop stop-color="#09005D"/>
<stop offset="1" stop-color="#1A0F91"/>
</linearGradient>
<linearGradient id="paint41_linear_2615_67" x1="30717.7" y1="9239.95" x2="31931.3" y2="9731.93" gradientUnits="userSpaceOnUse">
<stop stop-color="#FEBBBA"/>
<stop offset="1" stop-color="#FF928E"/>
</linearGradient>
<clipPath id="clip0_2615_67">
<rect width="233.848" height="233.848" fill="white" transform="translate(18.1432) rotate(4.44978)"/>
</clipPath>
</defs>
</svg>
